<svg xmlns="http://www.w3.org/2000/svg" xmlns:xlink="http://www.w3.org/1999/xlink" xmlns:lucid="lucid" width="2432.31" height="3123"><g transform="translate(280 241.5)" lucid:page-tab-id="0_0"><path d="M788-220c17.67 0 32 17.9 32 40s-14.33 40-32 40h-96c-17.67 0-32-17.9-32-40s14.33-40 32-40z" stroke="#000" stroke-opacity="0" stroke-width="3" fill="#979ea8"/><use xlink:href="#a" transform="matrix(1,0,0,1,665,-215) translate(39.401851851851866 41.266666666666666)"/><path d="M733.6 228.18a10.67 10.67 0 0 1 12.8 0l137.2 102.9a6 6 0 0 1 0 9.6l-137.2 102.9a10.67 10.67 0 0 1-12.8 0l-137.2-102.9a6 6 0 0 1 0-9.6z" stroke="#6db1ff" stroke-width="3" fill="#fff"/><use xlink:href="#b" transform="matrix(1,0,0,1,595,228.38183522761892) translate(19.9129774305556 98.207599619709)"/><use xlink:href="#c" transform="matrix(1,0,0,1,595,228.38183522761892) translate(216.4782986111111 98.207599619709)"/><use xlink:href="#d" transform="matrix(1,0,0,1,595,228.38183522761892) translate(252.21744791666663 98.207599619709)"/><use xlink:href="#e" transform="matrix(1,0,0,1,595,228.38183522761892) translate(10.978190104166714 137.41002190806879)"/><use xlink:href="#f" transform="matrix(1,0,0,1,595,228.38183522761892) translate(207.5435112847222 137.41002190806879)"/><use xlink:href="#g" transform="matrix(1,0,0,1,595,228.38183522761892) translate(243.28266059027774 137.41002190806879)"/><path d="M768 2780c17.67 0 32 17.9 32 40s-14.33 40-32 40h-96c-17.67 0-32-17.9-32-40s14.33-40 32-40z" stroke="#000" stroke-opacity="0" stroke-width="3" fill="#979ea8"/><use xlink:href="#h" transform="matrix(1,0,0,1,645,2785) translate(40.31574074074076 41.266666666666666)"/><path d="M740-138.5v39" stroke="#333" stroke-width="3" fill="none"/><path d="M741.48-138.46h-2.96V-140h2.96z" stroke="#333" stroke-width=".05" fill="#333"/><path d="M740-83.73L735.37-98h9.26z" stroke="#333" stroke-width="3" fill="#333"/><path d="M733.55-75.26a10.9 10.9 0 0 1 12.9 0l152.73 112.2a5.88 5.88 0 0 1 0 9.5l-152.73 112.2a10.9 10.9 0 0 1-12.9 0L580.82 46.45a5.88 5.88 0 0 1 0-9.5z" stroke="#6db1ff" stroke-width="3" fill="#fff"/><use xlink:href="#i" transform="matrix(1,0,0,1,579.3694376290115,-75) translate(40.23537037037045 105.06633273001509)"/><use xlink:href="#j" transform="matrix(1,0,0,1,579.3694376290115,-75) translate(178.8535185185185 105.06633273001509)"/><use xlink:href="#k" transform="matrix(1,0,0,1,579.3694376290115,-75) translate(219.39425925925923 105.06633273001509)"/><use xlink:href="#l" transform="matrix(1,0,0,1,579.3694376290115,-75) translate(40.23537037037045 140.16033393665157)"/><use xlink:href="#m" transform="matrix(1,0,0,1,579.3694376290115,-75) translate(178.8535185185185 140.16033393665157)"/><use xlink:href="#n" transform="matrix(1,0,0,1,579.3694376290115,-75) translate(219.39425925925923 140.16033393665157)"/><path d="M740.98 206.04H739v-6.32H741zm0-35.92H739v-6.86H741z" stroke="#008a0e" stroke-width=".05" fill="#008a0e"/><path d="M740 162.26l.98-.06v1.1H739v-1.1z" fill="#008a0e"/><path stroke="#008a0e" stroke-width=".05" fill="#008a0e"/><path d="M740 221.3l-4.63-14.26h9.26z" fill="#008a0e"/><path d="M740 224.46l-5.98-18.4h11.96zm-3.3-16.44l3.3 10.13 3.3-10.13z" stroke="#008a0e" stroke-width=".05" fill="#008a0e"/><use xlink:href="#o" transform="matrix(1,0,0,1,718.7592592592592,170.12150865680826) translate(0.004999999999999005 19.73333333333333)"/><path d="M2090.03 40.87l1.98.48 1.9.78 1.73 1.06 1.55 1.3 1.32 1.56 1.06 1.74.78 1.88.48 1.98.15 2v2754.38l-.15 2-.48 1.97-.78 1.9-1.06 1.73-1.32 1.55-1.55 1.32-1.74 1.06-1.9.78-1.97.48-2 .15H818.5v-1.94h1269.46l1.76-.14 1.7-.42 1.58-.66 1.48-.9 1.3-1.13 1.14-1.32.9-1.48.66-1.6.4-1.68.14-1.76V53.73l-.13-1.76-.42-1.7-.66-1.58-.9-1.5-1.13-1.3-1.32-1.13-1.48-.9-1.6-.66-1.68-.4-1.76-.13H904.1v-1.95h1183.94z" stroke="#e81313" stroke-width=".05" fill="#e81313"/><path d="M904.1 42.67H903l.1-.98-.1-.98h1.1z" fill="#e81313"/><path stroke="#e81313" stroke-width=".05" fill="#e81313"/><path d="M817.5 2824.64l-14.26-4.64 14.26-4.64z" fill="#e81313"/><path d="M818.48 2825.98l-18.4-5.98 18.4-5.98zm-12.1-5.98l10.15 3.3v-6.6z" stroke="#e81313" stroke-width=".05" fill="#e81313"/><use xlink:href="#p" transform="matrix(1,0,0,1,2107.9999999999995,1743.1350322724804) translate(0.004999999999999005 24.888888888888893)"/><path d="M1970.03 335.06l1.98.48 1.9.78 1.73 1.06 1.55 1.32 1.32 1.55 1.06 1.74.78 1.87.48 1.98.15 2v2340.2l-.15 1.98-.48 1.98-.78 1.9-1.06 1.73-1.32 1.55-1.55 1.32-1.74 1.06-1.9.78-1.97.48-2 .15h-1236l-1.75.14-1.7.42-1.58.66-1.48.9-1.3 1.13-1.14 1.32-.9 1.48-.66 1.6-.4 1.68-.14 1.76v49.46H719v-49.54l.16-2 .48-1.97.78-1.9 1.06-1.73 1.32-1.55 1.55-1.32 1.74-1.06 1.9-.78 1.97-.48 2-.15h1236l1.75-.14 1.7-.42 1.58-.66 1.48-.9 1.3-1.13 1.14-1.32.9-1.48.66-1.6.4-1.68.14-1.76V347.92l-.13-1.76-.42-1.68-.66-1.6-.9-1.48-1.13-1.3-1.32-1.14-1.48-.9-1.6-.66-1.68-.4-1.76-.14H888.5v-1.95h1079.54z" stroke="#e81313" stroke-width=".05" fill="#e81313"/><path d="M888.53 336.86h-1.1l.08-.98-.08-.97h1.1z" fill="#e81313"/><path stroke="#e81313" stroke-width=".05" fill="#e81313"/><path d="M720 2776.76l-4.63-14.26h9.26z" fill="#e81313"/><path d="M720 2779.92l-5.98-18.4h11.96zm-3.3-16.45l3.3 10.14 3.3-10.13z" stroke="#e81313" stroke-width=".05" fill="#e81313"/><use xlink:href="#p" transform="matrix(1,0,0,1,1988,1742.5304341171914) translate(0.004999999999999005 24.888888888888893)"/><path d="M-69.65 909.67a10.67 10.67 0 0 1 12.8 0l183.96 137.97a6 6 0 0 1 0 9.6L-56.84 1195.2a10.67 10.67 0 0 1-12.8 0l-183.95-137.97a6 6 0 0 1 0-9.6z" stroke="#6db1ff" stroke-width="3" fill="#fff"/><use xlink:href="#q" transform="matrix(1,0,0,1,-255,909.8701298701299) translate(102.65212673611114 133.70759961970901)"/><use xlink:href="#r" transform="matrix(1,0,0,1,-255,909.8701298701299) translate(40.10861545138894 172.91002190806879)"/><path d="M1556.85 909.67a10.67 10.67 0 0 1 12.8 0l183.95 137.97a6 6 0 0 1 0 9.6l-183.95 137.96a10.67 10.67 0 0 1-12.8 0l-183.96-137.97a6 6 0 0 1 0-9.6z" stroke="#6db1ff" stroke-width="3" fill="#fff"/><use xlink:href="#b" transform="matrix(1,0,0,1,1371.4935064935066,909.8701298701299) translate(84.78255208333337 133.70759961970901)"/><use xlink:href="#s" transform="matrix(1,0,0,1,1371.4935064935066,909.8701298701299) translate(281.34787326388886 133.70759961970901)"/><use xlink:href="#t" transform="matrix(1,0,0,1,1371.4935064935066,909.8701298701299) translate(49.04340277777783 172.91002190806879)"/><use xlink:href="#u" transform="matrix(1,0,0,1,1371.4935064935066,909.8701298701299) translate(84.78255208333337 172.91002190806879)"/><use xlink:href="#v" transform="matrix(1,0,0,1,1371.4935064935066,909.8701298701299) translate(138.39127604166669 172.91002190806879)"/><use xlink:href="#w" transform="matrix(1,0,0,1,1371.4935064935066,909.8701298701299) translate(209.86957465277777 172.91002190806879)"/><use xlink:href="#u" transform="matrix(1,0,0,1,1371.4935064935066,909.8701298701299) translate(245.60872395833331 172.91002190806879)"/><use xlink:href="#x" transform="matrix(1,0,0,1,1371.4935064935066,909.8701298701299) translate(299.21744791666663 172.91002190806879)"/><path d="M733.6 513.18a10.67 10.67 0 0 1 12.8 0l137.2 102.9a6 6 0 0 1 0 9.6l-137.2 102.9a10.67 10.67 0 0 1-12.8 0l-137.2-102.9a6 6 0 0 1 0-9.6z" stroke="#6db1ff" stroke-width="3" fill="#fff"/><use xlink:href="#y" transform="matrix(1,0,0,1,595,513.3818352276189) translate(37.78255208333337 98.207599619709)"/><use xlink:href="#c" transform="matrix(1,0,0,1,595,513.3818352276189) translate(198.60872395833331 98.207599619709)"/><use xlink:href="#d" transform="matrix(1,0,0,1,595,513.3818352276189) translate(234.34787326388886 98.207599619709)"/><use xlink:href="#z" transform="matrix(1,0,0,1,595,513.3818352276189) translate(28.847764756944485 137.41002190806879)"/><use xlink:href="#f" transform="matrix(1,0,0,1,595,513.3818352276189) translate(189.67393663194443 137.41002190806879)"/><use xlink:href="#A" transform="matrix(1,0,0,1,595,513.3818352276189) translate(225.41308593749997 137.41002190806879)"/><path d="M740.98 454.38H739v-6.16H741z" stroke="#008a0e" stroke-width=".05" fill="#008a0e"/><path d="M740 447.22l.98-.07v1.1H739v-1.1z" fill="#008a0e"/><path stroke="#008a0e" stroke-width=".05" fill="#008a0e"/><path d="M740 506.3l-4.63-14.26h9.26z" fill="#008a0e"/><path d="M740 509.46l-5.68-17.48h11.36zm-3.3-16.44l3.3 10.13 3.3-10.13z" stroke="#008a0e" stroke-width=".05" fill="#008a0e"/><use xlink:href="#B" transform="matrix(1,0,0,1,713.0185185185185,454.38356094207626) translate(0.004999999999999005 25.066666666666663)"/><path d="M1850.03 620.06l1.98.48 1.9.78 1.73 1.06 1.55 1.33 1.32 1.55 1.06 1.74.78 1.87.48 1.98.15 2v1935.2l-.15 1.98-.48 1.98-.78 1.9-1.06 1.73-1.32 1.55-1.55 1.32-1.74 1.06-1.9.78-1.97.48-2 .15h-1116l-1.75.14-1.7.42-1.58.66-1.48.9-1.3 1.13-1.14 1.32-.9 1.48-.66 1.6-.4 1.68-.14 1.76v169.46H719v-169.54l.16-2 .48-1.97.78-1.9 1.06-1.73 1.32-1.55 1.55-1.32 1.74-1.06 1.9-.78 1.97-.48 2-.15h1116l1.75-.14 1.7-.42 1.58-.66 1.48-.9 1.3-1.13 1.14-1.32.9-1.48.66-1.6.4-1.68.14-1.76V632.92l-.13-1.76-.42-1.68-.66-1.6-.9-1.48-1.13-1.3-1.32-1.13-1.48-.9-1.6-.67-1.68-.4-1.76-.14H888.5v-1.95h959.54z" stroke="#e81313" stroke-width=".05" fill="#e81313"/><path d="M888.53 621.86h-1.1l.08-.98-.08-.97h1.1z" fill="#e81313"/><path stroke="#e81313" stroke-width=".05" fill="#e81313"/><path d="M720 2776.76l-4.63-14.26h9.26z" fill="#e81313"/><path d="M720 2779.92l-5.98-18.4h11.96zm-3.3-16.45l3.3 10.14 3.3-10.13z" stroke="#e81313" stroke-width=".05" fill="#e81313"/><use xlink:href="#p" transform="matrix(1,0,0,1,1868.0000000000002,1739.866972396892) translate(0.004999999999999005 24.888888888888893)"/><path d="M1551.3 769.7l1.98.14 1.98.48 1.88.78 1.73 1.06 1.55 1.33 1.33 1.53 1.06 1.74.8 1.88.47 1.98.15 2v104.9h-1.95V782.7l-.14-1.76-.4-1.68-.66-1.6-.9-1.48-1.13-1.3-1.32-1.13-1.47-.9-1.6-.67-1.68-.4-1.76-.14h-455v-1.95zm-507.32 1.94H764.55v-1.95h279.43zm-303-13.02l.13 1.77.42 1.67.66 1.6.36.6h-2.23l-.64-1.6-.48-1.98-.15-2v-25.48h1.95z" stroke="#008a0e" stroke-width=".05" fill="#008a0e"/><path d="M740 732.22l.98-.07v1.1H739v-1.1z" fill="#008a0e"/><path stroke="#008a0e" stroke-width=".05" fill="#008a0e"/><path d="M1563.25 902.8l-4.64-14.27h9.28z" fill="#008a0e"/><path d="M1563.25 905.95l-5.98-18.4h11.95zm-3.3-16.44l3.3 10.14 3.3-10.13z" stroke="#008a0e" stroke-width=".05" fill="#008a0e"/><use xlink:href="#C" transform="matrix(1,0,0,1,1043.985236021874,751.8625391044161) translate(0.004999999999999005 25.066666666666634)"/><path d="M262.27 770.98H-51.2l-1.77.13-1.68.42-1.6.66-1.48.9-1.3 1.13-1.13 1.32-.9 1.48-.67 1.6-.4 1.68-.14 1.76v105.5h-1.95V781.95l.16-2 .47-1.97.8-1.9 1.05-1.73 1.33-1.55 1.55-1.32 1.73-1.06 1.88-.78 1.98-.48 2-.15h313.55zm450.06 0h-396.1V769h396.1zm28.64-12.94l-.15 2-.48 1.97-.78 1.9-.22.36h-2.3l.78-1.26.66-1.6.4-1.68.14-1.76v-24.74H741z" stroke="#008a0e" stroke-width=".05" fill="#008a0e"/><path d="M740 732.22l.98-.07v1.1H739v-1.1z" fill="#008a0e"/><path stroke="#008a0e" stroke-width=".05" fill="#008a0e"/><path d="M-63.25 902.8l-4.63-14.27h9.27z" fill="#008a0e"/><path d="M-63.25 905.95l-5.97-18.4h11.95zm-3.3-16.44l3.3 10.14 3.3-10.13z" stroke="#008a0e" stroke-width=".05" fill="#008a0e"/><use xlink:href="#B" transform="matrix(1,0,0,1,262.26915935421835,751.2) translate(0.004999999999999005 25.066666666666663)"/><path d="M1564.22 1277.66h-1.95v-11.36h1.95zm0-48.96h-1.95v-28.86h1.95z" stroke="#008a0e" stroke-width=".05" fill="#008a0e"/><path d="M1563.25 1198.84l.97-.07v1.1h-1.95v-1.1z" fill="#008a0e"/><path stroke="#008a0e" stroke-width=".05" fill="#008a0e"/><path d="M1563.25 1292.93l-4.64-14.27h9.28z" fill="#008a0e"/><path d="M1563.25 1296.08l-5.98-18.4h11.95zm-3.3-16.44l3.3 10.13 3.3-10.13z" stroke="#008a0e" stroke-width=".05" fill="#008a0e"/><use xlink:href="#B" transform="matrix(1,0,0,1,1536.2652717652718,1228.699999927114) translate(0.004999999999999005 25.066666666666663)"/><path d="M1556.85 1299.8a10.67 10.67 0 0 1 12.8 0l137.2 102.9a6 6 0 0 1 0 9.6l-137.2 102.9a10.67 10.67 0 0 1-12.8 0l-137.2-102.9a6 6 0 0 1 0-9.6z" stroke="#6db1ff" stroke-width="3" fill="#fff"/><use xlink:href="#D" transform="matrix(1,0,0,1,1418.2467532467533,1300) translate(28.847764756944485 117.80881076388889)"/><use xlink:href="#f" transform="matrix(1,0,0,1,1418.2467532467533,1300) translate(189.67393663194443 117.80881076388889)"/><use xlink:href="#E" transform="matrix(1,0,0,1,1418.2467532467533,1300) translate(225.41308593749997 117.80881076388889)"/><path d="M1728.04 1406.68l1.98.48 1.88.78 1.74 1.06 1.54 1.32 1.33 1.55 1.07 1.74.78 1.9.48 1.97.15 2v1028.57l-.15 2-.48 1.97-.78 1.9-1.06 1.73-1.32 1.55-1.54 1.32-1.74 1.06-1.88.78-1.98.48-2 .15h-994l-1.76.14-1.7.42-1.58.66-1.48.9-1.3 1.13-1.14 1.32-.9 1.48-.66 1.6-.4 1.68-.14 1.76v289.46H719v-289.54l.16-2 .48-1.97.78-1.9 1.06-1.73 1.32-1.55 1.55-1.32 1.74-1.06 1.9-.78 1.97-.48 2-.15h994l1.76-.14 1.68-.42 1.6-.66 1.5-.9 1.3-1.13 1.13-1.32.9-1.48.66-1.6.4-1.68.13-1.76V1419.54l-.13-1.76-.4-1.7-.67-1.58-.9-1.48-1.13-1.3-1.3-1.14-1.5-.9-1.6-.66-1.67-.4-1.76-.14h-14.22v-1.95h14.3z" stroke="#e81313" stroke-width=".05" fill="#e81313"/><path d="M1711.78 1408.47h-1.12l.1-.97-.1-.97h1.12z" fill="#e81313"/><path stroke="#e81313" stroke-width=".05" fill="#e81313"/><path d="M720 2776.76l-4.63-14.26h9.26z" fill="#e81313"/><path d="M720 2779.92l-5.98-18.4h11.96zm-3.3-16.45l3.3 10.14 3.3-10.13z" stroke="#e81313" stroke-width=".05" fill="#e81313"/><use xlink:href="#p" transform="matrix(1,0,0,1,1746.0085883971483,1752.2381532511652) translate(0.004999999999999005 24.888888888888893)"/><path d="M1564.22 2198.04l-.15 2-.48 1.97-.8 1.9-1.05 1.73-1.33 1.55-1.55 1.32-1.73 1.06-1.88.78-1.98.48-2 .15H1140v-1.94h411.2l1.77-.14 1.68-.42 1.6-.66 1.47-.9 1.32-1.13 1.12-1.32.9-1.48.67-1.6.4-1.68.14-1.76v-294.7h1.95zm0-332.38h-1.95v-345.82h1.95z" stroke="#008a0e" stroke-width=".05" fill="#008a0e"/><path d="M1563.25 1518.84l.97-.07v1.1h-1.95v-1.1z" fill="#008a0e"/><path stroke="#008a0e" stroke-width=".05" fill="#008a0e"/><path d="M1139 2214.64l-14.26-4.64 14.26-4.64z" fill="#008a0e"/><path d="M1139.98 2215.98l-18.4-5.98 18.4-5.98zm-12.1-5.98l10.15 3.3v-6.6z" stroke="#008a0e" stroke-width=".05" fill="#008a0e"/><use xlink:href="#B" transform="matrix(1,0,0,1,1536.2652717652718,1865.66508862519) translate(0.004999999999999005 25.066666666666663)"/><path d="M737.86 815.4h-1.95v-13.54h1.96zm3.12-51.14H739V733.2H741z" stroke="#008a0e" stroke-width=".05" fill="#008a0e"/><path d="M740 732.22l.98-.07v1.1H739v-1.1z" fill="#008a0e"/><path stroke="#008a0e" stroke-width=".05" fill="#008a0e"/><path d="M736.88 830.65l-4.63-14.26h9.27z" fill="#008a0e"/><path d="M736.88 833.8l-5.97-18.4h11.96zm-3.3-16.44l3.3 10.14 3.3-10.14z" stroke="#008a0e" stroke-width=".05" fill="#008a0e"/><use xlink:href="#F" transform="matrix(1,0,0,1,712.3304473304473,764.2545539694951) translate(0.004999999999999005 25.066666666666663)"/><path d="M730.48 837.53a10.67 10.67 0 0 1 12.8 0L927.24 975.5a6 6 0 0 1 0 9.6l-183.96 137.96a10.67 10.67 0 0 1-12.8 0L546.53 985.1a6 6 0 0 1 0-9.6z" stroke="#6db1ff" stroke-width="3" fill="#fff"/><use xlink:href="#b" transform="matrix(1,0,0,1,545.12987012987,837.7272727272727) translate(84.78255208333337 133.70759961970901)"/><use xlink:href="#s" transform="matrix(1,0,0,1,545.12987012987,837.7272727272727) translate(281.34787326388886 133.70759961970901)"/><use xlink:href="#G" transform="matrix(1,0,0,1,545.12987012987,837.7272727272727) translate(183.06521267361111 172.91002190806879)"/><path d="M740.98 1202.66H739v-9.93H741zm-3.12-47.53h-1.95v-27.44h1.96z" stroke="#008a0e" stroke-width=".05" fill="#008a0e"/><path d="M736.88 1126.7l.98-.07v1.1h-1.95v-1.1z" fill="#008a0e"/><path stroke="#008a0e" stroke-width=".05" fill="#008a0e"/><path d="M740 1217.93l-4.63-14.27h9.26z" fill="#008a0e"/><path d="M740 1221.08l-5.98-18.4h11.96zm-3.3-16.44l3.3 10.13 3.3-10.13z" stroke="#008a0e" stroke-width=".05" fill="#008a0e"/><use xlink:href="#B" transform="matrix(1,0,0,1,711.4600769600769,1155.1285713556856) translate(0.004999999999999005 25.066666666666663)"/><path d="M733.6 1224.8a10.67 10.67 0 0 1 12.8 0l137.2 102.9a6 6 0 0 1 0 9.6l-137.2 102.9a10.67 10.67 0 0 1-12.8 0l-137.2-102.9a6 6 0 0 1 0-9.6z" stroke="#6db1ff" stroke-width="3" fill="#fff"/><use xlink:href="#H" transform="matrix(1,0,0,1,595,1225) translate(28.847764756944485 98.207599619709)"/><use xlink:href="#I" transform="matrix(1,0,0,1,595,1225) translate(207.5435112847222 98.207599619709)"/><use xlink:href="#J" transform="matrix(1,0,0,1,595,1225) translate(243.28266059027774 98.207599619709)"/><use xlink:href="#K" transform="matrix(1,0,0,1,595,1225) translate(118.19563802083334 137.41002190806879)"/><use xlink:href="#L" transform="matrix(1,0,0,1,595,1225) translate(153.93478732638889 137.41002190806879)"/><path d="M1078.04 1521.53l2 .15 1.97.48 1.9.78 1.73 1.06 1.55 1.32 1.32 1.55 1.06 1.74.78 1.9.48 1.97.15 2v48.2h-1.94v-48.13l-.14-1.76-.42-1.7-.66-1.58-.9-1.48-1.13-1.3-1.32-1.14-1.48-.9-1.6-.66-1.68-.4-1.76-.14h-196.5v-1.95zm-336.93-9.3l.42 1.68.66 1.6.9 1.48 1.13 1.3 1.32 1.14 1.48.9 1.6.66 1.68.4 1.76.14h75.44v1.95h-75.52l-2-.15-1.97-.48-1.9-.78-1.73-1.06-1.55-1.32-1.32-1.55-1.06-1.74-.78-1.9-.48-1.97-.15-2v-65.7h1.95v65.63z" stroke="#008a0e" stroke-width=".05" fill="#008a0e"/><path d="M740 1443.84l.98-.07v1.1H739v-1.1z" fill="#008a0e"/><path stroke="#008a0e" stroke-width=".05" fill="#008a0e"/><path d="M1090 1597.93l-4.63-14.27h9.27z" fill="#008a0e"/><path d="M1090 1601.08l-5.98-18.4h11.96zm-3.3-16.44l3.3 10.13 3.3-10.13z" stroke="#008a0e" stroke-width=".05" fill="#008a0e"/><use xlink:href="#B" transform="matrix(1,0,0,1,827.4843394868144,1503.7) translate(0.004999999999999005 25.066666666666663)"/><path d="M1083.6 1604.8a10.67 10.67 0 0 1 12.8 0l137.2 102.9a6 6 0 0 1 0 9.6l-137.2 102.9a10.67 10.67 0 0 1-12.8 0l-137.2-102.9a6 6 0 0 1 0-9.6z" stroke="#6db1ff" stroke-width="3" fill="#fff"/><use xlink:href="#y" transform="matrix(1,0,0,1,945,1605) translate(28.847764756944485 117.80881076388889)"/><use xlink:href="#f" transform="matrix(1,0,0,1,945,1605) translate(189.67393663194443 117.80881076388889)"/><use xlink:href="#M" transform="matrix(1,0,0,1,945,1605) translate(225.41308593749997 117.80881076388889)"/><path d="M547.2 1523.47H362.04l-1.76.14-1.7.42-1.58.66-1.48.9-1.3 1.13-1.14 1.32-.9 1.48-.66 1.6-.4 1.68-.14 1.76v48.12h-1.96v-48.2l.16-2 .48-1.97.78-1.9 1.06-1.73 1.32-1.55 1.55-1.32 1.74-1.06 1.9-.78 1.97-.48 2-.15H547.2zm193.77-12.93l-.15 2-.48 1.97-.78 1.9-1.06 1.73-1.32 1.55-1.55 1.32-1.74 1.06-1.9.78-1.97.48-2 .15H588.8v-1.94h139.16l1.76-.14 1.7-.42 1.58-.66 1.48-.9 1.3-1.13 1.14-1.32.9-1.48.66-1.6.4-1.68.14-1.76v-65.62H741z" stroke="#e81313" stroke-width=".05" fill="#e81313"/><path d="M740 1443.84l.98-.07v1.1H739v-1.1z" fill="#e81313"/><path stroke="#e81313" stroke-width=".05" fill="#e81313"/><path d="M350 1597.93l-4.63-14.27h9.26z" fill="#e81313"/><path d="M350 1601.08l-5.98-18.4h11.96zm-3.3-16.44l3.3 10.13 3.3-10.13z" stroke="#e81313" stroke-width=".05" fill="#e81313"/><g><use xlink:href="#N" transform="matrix(1,0,0,1,547.1981481481481,1503.7) translate(0.004999999999999005 25.066666666666663)"/></g><path d="M343.6 1604.8a10.67 10.67 0 0 1 12.8 0l137.2 102.9a6 6 0 0 1 0 9.6l-137.2 102.9a10.67 10.67 0 0 1-12.8 0l-137.2-102.9a6 6 0 0 1 0-9.6z" stroke="#6db1ff" stroke-width="3" fill="#fff"/><g><use xlink:href="#y" transform="matrix(1,0,0,1,205,1605) translate(28.847764756944485 117.80881076388889)"/><use xlink:href="#f" transform="matrix(1,0,0,1,205,1605) translate(189.67393663194443 117.80881076388889)"/><use xlink:href="#O" transform="matrix(1,0,0,1,205,1605) translate(225.41308593749997 117.80881076388889)"/></g><path d="M-62.27 2197.96l.14 1.76.4 1.7.66 1.58.9 1.48 1.13 1.3 1.3 1.14 1.5.9 1.6.66 1.67.4 1.76.14H380v1.95H-51.3l-1.98-.15-1.98-.48-1.88-.78-1.73-1.06-1.55-1.32-1.33-1.55-1.06-1.74-.8-1.9-.46-1.97-.16-2v-514.87h1.95zm0-552.4h-1.95v-445.72h1.95z" stroke="#008a0e" stroke-width=".05" fill="#008a0e"/><path d="M-63.25 1198.84l.98-.07v1.1h-1.95v-1.1z" fill="#008a0e"/><path stroke="#008a0e" stroke-width=".05" fill="#008a0e"/><path d="M395.26 2210l-14.26 4.64v-9.28z" fill="#008a0e"/><path d="M398.42 2210l-18.4 5.98v-11.96zm-16.45 3.3l10.14-3.3-10.13-3.3z" stroke="#008a0e" stroke-width=".05" fill="#008a0e"/><g><use xlink:href="#B" transform="matrix(1,0,0,1,-90.2282347282347,1645.5615136281092) translate(0.004999999999999005 25.066666666666663)"/></g><path d="M400 2148a8 8 0 0 1 8-8h704a8 8 0 0 1 8 8v124a8 8 0 0 1-8 8H408a8 8 0 0 1-8-8z" stroke="#3a414a" stroke-width="3" fill="#fff"/><g><use xlink:href="#P" transform="matrix(1,0,0,1,405,2145) translate(29.613715277778056 83.77126736111109)"/><use xlink:href="#Q" transform="matrix(1,0,0,1,405,2145) translate(354.99999999999994 83.77126736111109)"/><use xlink:href="#R" transform="matrix(1,0,0,1,405,2145) translate(582.7703993055553 83.77126736111109)"/></g><path d="M748.04 1980.2l2 .15 1.97.48 1.9.78 1.73 1.07 1.55 1.32 1.32 1.54 1.06 1.74.78 1.88.48 1.98.15 2V2120h-1.95v-126.8l-.13-1.76-.42-1.68-.66-1.6-.9-1.47-1.13-1.33-1.32-1.12-1.48-.9-1.6-.66-1.68-.42-1.76-.14H581.98v-1.95zm-396.93-9.3l.42 1.67.66 1.6.9 1.48 1.13 1.3 1.32 1.13 1.48.9 1.6.67 1.68.4 1.76.14h165.98v1.94H361.96l-2-.15-1.97-.5-1.9-.77-1.73-1.06-1.55-1.33-1.32-1.54-1.06-1.74-.78-1.88-.48-1.98-.16-2v-144.36h1.96v144.3z" stroke="#008a0e" stroke-width=".05" fill="#008a0e"/><path d="M350 1823.84l.98-.07v1.1h-1.96v-1.1z" fill="#008a0e"/><path stroke="#008a0e" stroke-width=".05" fill="#008a0e"/><path d="M760 2135.26l-4.63-14.26h9.26z" fill="#008a0e"/><path d="M760 2138.42l-5.98-18.4h11.96zm-3.3-16.45l3.3 10.14 3.3-10.13z" stroke="#008a0e" stroke-width=".05" fill="#008a0e"/><g><use xlink:href="#B" transform="matrix(1,0,0,1,528.0185185185185,1962.3682368641787) translate(0.004999999999999005 25.066666666666663)"/></g><path d="M898.02 1982.14H772.04l-1.76.14-1.7.4-1.58.67-1.48.9-1.3 1.13-1.14 1.3-.9 1.48-.66 1.6-.4 1.68-.14 1.77V2120H759v-126.87l.16-2 .48-1.97.78-1.88 1.06-1.74 1.32-1.55 1.55-1.33 1.74-1.07 1.9-.77 1.97-.48 2-.16H898zm192.95-12.93l-.15 2-.48 1.98-.78 1.88-1.06 1.74-1.32 1.55-1.55 1.32-1.74 1.06-1.9.78-1.97.5-2 .14H952v-1.95h125.98l1.76-.14 1.7-.4 1.58-.67 1.48-.9 1.3-1.14 1.14-1.3.9-1.5.66-1.6.4-1.67.14-1.77v-144.3h1.95z" stroke="#008a0e" stroke-width=".05" fill="#008a0e"/><path d="M1090 1823.84l.97-.07v1.1h-1.94v-1.1z" fill="#008a0e"/><path stroke="#008a0e" stroke-width=".05" fill="#008a0e"/><path d="M760 2135.26l-4.63-14.26h9.26z" fill="#008a0e"/><path d="M760 2138.42l-5.98-18.4h11.96zm-3.3-16.45l3.3 10.14 3.3-10.13z" stroke="#008a0e" stroke-width=".05" fill="#008a0e"/><g><use xlink:href="#B" transform="matrix(1,0,0,1,898.0185185185185,1962.3682368641787) translate(0.004999999999999005 25.066666666666663)"/></g><path d="M600.98 2807.96l.13 1.76.42 1.7.66 1.58.9 1.48 1.13 1.3 1.32 1.14 1.48.9 1.6.66 1.68.4 1.76.14h9.46v1.95h-9.54l-2-.15-1.97-.48-1.9-.78-1.73-1.06-1.55-1.32-1.32-1.55-1.06-1.74-.78-1.9-.48-1.97-.15-2v-210.87h1.95zm160-471.92l-.16 2-.48 1.97-.78 1.9-1.06 1.73-1.32 1.55-1.55 1.32-1.74 1.06-1.9.78-1.97.48-2 .15h-136l-1.75.14-1.7.42-1.58.66-1.48.9-1.3 1.13-1.14 1.32-.9 1.48-.66 1.6-.4 1.68-.14 1.76v207.52H599v-207.6l.16-2 .48-1.97.78-1.9 1.06-1.73 1.32-1.55 1.55-1.32 1.74-1.06 1.9-.78 1.97-.48 2-.15h136l1.75-.14 1.7-.42 1.58-.66 1.48-.9 1.3-1.13 1.14-1.32.9-1.48.66-1.6.4-1.68.14-1.76v-53.46H761z" stroke="#008a0e" stroke-width=".05" fill="#008a0e"/><path d="M760.98 2282.53H759v-1.03H761z" fill="#008a0e"/><path stroke="#008a0e" stroke-width=".05" fill="#008a0e"/><path d="M636.76 2820l-14.26 4.64v-9.28z" fill="#008a0e"/><path d="M639.92 2820l-18.4 5.98v-11.96zm-16.45 3.3l10.14-3.3-10.13-3.3z" stroke="#008a0e" stroke-width=".05" fill="#008a0e"/><g><use xlink:href="#o" transform="matrix(1,0,0,1,578.7592592592592,2567.5633759060324) translate(0.004999999999999005 19.73333333333333)"/></g><defs><path d="M169-182c-1-43-94-46-97-3 18 66 151 10 154 114 3 95-165 93-204 36-6-8-10-19-12-30l50-8c3 46 112 56 116 5-17-69-150-10-154-114-4-87 153-88 188-35 5 8 8 18 10 28" id="S"/><path d="M115-3C79 11 28 4 28-45v-112H4v-33h27l15-45h31v45h36v33H77v99c-1 23 16 31 38 25v30" id="T"/><path d="M133-34C117-15 103 5 69 4 32 3 11-16 11-54c-1-60 55-63 116-61 1-26-3-47-28-47-18 1-26 9-28 27l-52-2c7-38 36-58 82-57s74 22 75 68l1 82c-1 14 12 18 25 15v27c-30 8-71 5-69-32zm-48 3c29 0 43-24 42-57-32 0-66-3-65 30 0 17 8 27 23 27" id="U"/><path d="M135-150c-39-12-60 13-60 57V0H25l-1-190h47c2 13-1 29 3 40 6-28 27-53 61-41v41" id="V"/><g id="a"><use transform="matrix(0.087037037037037,0,0,0.087037037037037,0,0)" xlink:href="#S"/><use transform="matrix(0.087037037037037,0,0,0.087037037037037,20.88888888888888,0)" xlink:href="#T"/><use transform="matrix(0.087037037037037,0,0,0.087037037037037,31.246296296296283,0)" xlink:href="#U"/><use transform="matrix(0.087037037037037,0,0,0.087037037037037,48.653703703703684,0)" xlink:href="#V"/><use transform="matrix(0.087037037037037,0,0,0.087037037037037,60.83888888888886,0)" xlink:href="#T"/></g><path d="M977 0v-707c0-97-9-165-27-203s-47-57-88-57c-58 0-100 28-126 83s-40 148-40 278V0H535v-707c0-173-42-260-125-260-56 0-96 26-120 79s-36 160-36 319V0H92v-1098h127l27 148h10c45-112 112-168 201-168 109 0 180 61 213 182h6c51-121 124-182 219-182 85 0 147 30 186 92s58 165 58 309V0H977" id="W"/><path d="M1112-551c0 331-186 571-502 571-301 0-495-251-495-571 0-330 184-567 501-567 302 0 496 249 496 567zM614-131c207 0 310-140 310-420 0-277-104-416-312-416-206 0-309 139-309 416 0 280 104 420 311 420" id="X"/><path d="M887 0v-707c0-173-79-260-238-260-205 0-307 133-307 398V0H160v-1098h147l27 148h10c69-112 181-168 336-168 259 0 389 134 389 401V0H887" id="Y"/><path d="M1020-150v138C933 9 849 20 768 20 527 20 406-95 406-324v-637H139v-94l267-49 77-287h105v293h438v137H588v637c0 130 64 195 192 195 62 0 142-7 240-21" id="Z"/><path d="M887 0v-707c0-173-79-260-238-260-205 0-307 133-307 398V0H160v-1556h182c-2 202 6 416-8 606h10c69-112 181-168 336-168 259 0 389 134 389 401V0H887" id="aa"/><path d="M1243 324H-16V184h1259v140" id="ab"/><path d="M137-547c0-322 136-571 430-571 137 0 245 53 322 160h12c-24-215-7-376-12-598h182V0H924l-27-147h-8C814-36 706 20 567 20c-294 0-430-246-430-567zm463 416c241 0 288-157 289-416 0-151-23-259-69-323s-121-97-222-97c-181 0-272 141-272 422 0 276 91 414 274 414" id="ac"/><path d="M596-1118c288 2 430 92 430 366V0H895l-37-152h-8C752-34 680 17 483 20 272 23 135-98 135-307c0-221 170-337 510-348l203-7c15-197-55-305-244-305-98 0-207 27-328 82l-63-137c131-64 258-96 383-96zm-72 991c194 0 325-116 322-311v-99c-251 15-522-6-522 232 0 119 67 178 200 178" id="ad"/><path d="M631-1118c283 0 470 204 465 491v113H322c5 250 120 375 344 375 130 0 253-25 370-76v160C925-5 804 20 672 20c-329 0-539-224-539-561 0-331 182-577 498-577zM326-662h573c0-203-91-305-272-305-183 0-284 102-301 305" id="ae"/><g id="b"><use transform="matrix(0.01453993055555555,0,0,0.01453993055555555,0,0)" xlink:href="#W"/><use transform="matrix(0.01453993055555555,0,0,0.01453993055555555,17.86957465277777,0)" xlink:href="#X"/><use transform="matrix(0.01453993055555555,0,0,0.01453993055555555,35.73914930555554,0)" xlink:href="#Y"/><use transform="matrix(0.01453993055555555,0,0,0.01453993055555555,53.608723958333314,0)" xlink:href="#Z"/><use transform="matrix(0.01453993055555555,0,0,0.01453993055555555,71.47829861111109,0)" xlink:href="#aa"/><use transform="matrix(0.01453993055555555,0,0,0.01453993055555555,89.34787326388886,0)" xlink:href="#ab"/><use transform="matrix(0.01453993055555555,0,0,0.01453993055555555,107.21744791666663,0)" xlink:href="#ac"/><use transform="matrix(0.01453993055555555,0,0,0.01453993055555555,125.0870225694444,0)" xlink:href="#ad"/><use transform="matrix(0.01453993055555555,0,0,0.01453993055555555,142.95659722222217,0)" xlink:href="#Z"/><use transform="matrix(0.01453993055555555,0,0,0.01453993055555555,160.82617187499994,0)" xlink:href="#ae"/></g><path d="M152-381l714-342-714-342v-160l923 451v102L152-221v-160" id="af"/><use transform="matrix(0.01453993055555555,0,0,0.01453993055555555,0,0)" xlink:href="#af" id="c"/><path d="M612 20c-153 0-268-65-347-194S147-489 147-733c0-501 155-752 465-752 155 0 271 64 350 193s119 316 119 559c0 502-156 753-469 753zm0-155c98 0 165-50 216-141 86-153 87-759 0-912-51-91-118-141-216-141-97 0-162 49-212 139-85 152-84 764 0 915 50 90 115 140 212 140" id="ag"/><use transform="matrix(0.01453993055555555,0,0,0.01453993055555555,0,0)" xlink:href="#ag" id="d"/><g id="e"><use transform="matrix(0.01453993055555555,0,0,0.01453993055555555,0,0)" xlink:href="#W"/><use transform="matrix(0.01453993055555555,0,0,0.01453993055555555,17.86957465277777,0)" xlink:href="#X"/><use transform="matrix(0.01453993055555555,0,0,0.01453993055555555,35.73914930555554,0)" xlink:href="#Y"/><use transform="matrix(0.01453993055555555,0,0,0.01453993055555555,53.608723958333314,0)" xlink:href="#Z"/><use transform="matrix(0.01453993055555555,0,0,0.01453993055555555,71.47829861111109,0)" xlink:href="#aa"/><use transform="matrix(0.01453993055555555,0,0,0.01453993055555555,89.34787326388886,0)" xlink:href="#ab"/><use transform="matrix(0.01453993055555555,0,0,0.01453993055555555,107.21744791666663,0)" xlink:href="#ac"/><use transform="matrix(0.01453993055555555,0,0,0.01453993055555555,125.0870225694444,0)" xlink:href="#ad"/><use transform="matrix(0.01453993055555555,0,0,0.01453993055555555,142.95659722222217,0)" xlink:href="#Z"/><use transform="matrix(0.01453993055555555,0,0,0.01453993055555555,160.82617187499994,0)" xlink:href="#ae"/></g><path d="M1075-221L152-672v-102l923-451v160L360-723l715 342v160" id="ah"/><use transform="matrix(0.01453993055555555,0,0,0.01453993055555555,0,0)" xlink:href="#ah" id="f"/><path d="M758 0H582c3-449-8-824 8-1274-61 68-188 168-268 234l-97-123 383-299h150V0" id="ai"/><path d="M1010-1120c0 200-132 322-316 350v6c241 31 361 147 361 348 0 294-219 436-537 436-161 0-290-26-387-79v-170c123 64 250 96 383 96 236 0 354-96 354-289 0-172-127-258-381-258H354v-151h133c195 4 334-97 336-277 1-140-106-221-250-221-119 0-233 40-344 121l-92-125c125-100 270-150 436-150 252 0 437 128 437 363" id="aj"/><g id="g"><use transform="matrix(0.01453993055555555,0,0,0.01453993055555555,0,0)" xlink:href="#ai"/><use transform="matrix(0.01453993055555555,0,0,0.01453993055555555,17.86957465277777,0)" xlink:href="#aj"/></g><path d="M110-194c64 0 96 36 96 99 0 64-35 99-97 99-61 0-95-36-95-99 0-62 34-99 96-99zm-1 164c35 0 45-28 45-65 0-40-10-65-43-65-34 0-45 26-45 65 0 36 10 65 43 65" id="ak"/><path d="M135-194c53 0 70 44 70 98 0 56-19 98-73 100-31 1-45-17-59-34 3 33 2 69 2 105H25l-1-265h48c2 10 0 23 3 31 11-24 29-35 60-35zM114-30c33 0 39-31 40-66 0-38-9-64-40-64-56 0-55 130 0 130" id="al"/><g id="h"><use transform="matrix(0.087037037037037,0,0,0.087037037037037,0,0)" xlink:href="#S"/><use transform="matrix(0.087037037037037,0,0,0.087037037037037,20.88888888888888,0)" xlink:href="#T"/><use transform="matrix(0.087037037037037,0,0,0.087037037037037,31.246296296296283,0)" xlink:href="#ak"/><use transform="matrix(0.087037037037037,0,0,0.087037037037037,50.30740740740738,0)" xlink:href="#al"/></g><path d="M123 10C108 53 80 86 19 72V37c35 8 53-11 59-39L3-190h52l48 148c12-52 28-100 44-148h51" id="am"/><path d="M185-48c-13 30-37 53-82 52C43 2 14-33 14-96s30-98 90-98c62 0 83 45 84 108H66c0 31 8 55 39 56 18 0 30-7 34-22zm-45-69c5-46-57-63-70-21-2 6-4 13-4 21h74" id="an"/><path d="M-4 44V30h207v14H-4" id="ao"/><path d="M88-194c31-1 46 15 58 34l-1-101h50l1 261h-48c-2-10 0-23-3-31C134-8 116 4 84 4 32 4 16-41 15-95c0-56 19-97 73-99zm17 164c33 0 40-30 41-66 1-37-9-64-41-64s-38 30-39 65c0 43 13 65 39 65" id="ap"/><g id="i"><use transform="matrix(0.07796296296296291,0,0,0.07796296296296291,0,0)" xlink:href="#am"/><use transform="matrix(0.07796296296296291,0,0,0.07796296296296291,15.592592592592583,0)" xlink:href="#an"/><use transform="matrix(0.07796296296296291,0,0,0.07796296296296291,31.185185185185166,0)" xlink:href="#U"/><use transform="matrix(0.07796296296296291,0,0,0.07796296296296291,46.77777777777775,0)" xlink:href="#V"/><use transform="matrix(0.07796296296296291,0,0,0.07796296296296291,57.692592592592554,0)" xlink:href="#ao"/><use transform="matrix(0.07796296296296291,0,0,0.07796296296296291,73.28518518518514,0)" xlink:href="#ap"/><use transform="matrix(0.07796296296296291,0,0,0.07796296296296291,90.35907407407402,0)" xlink:href="#U"/><use transform="matrix(0.07796296296296291,0,0,0.07796296296296291,105.9516666666666,0)" xlink:href="#T"/><use transform="matrix(0.07796296296296291,0,0,0.07796296296296291,115.2292592592592,0)" xlink:href="#an"/></g><path d="M15-22v-40l146-57-146-57v-40l181 69v56" id="aq"/><path d="M15-148v-39h180v39H15zm0 97v-39h180v39H15" id="ar"/><g id="j"><use transform="matrix(0.07796296296296291,0,0,0.07796296296296291,0,0)" xlink:href="#aq"/><use transform="matrix(0.07796296296296291,0,0,0.07796296296296291,16.372222222222213,0)" xlink:href="#ar"/></g><path d="M23 0v-37h61v-169l-59 37v-38l62-41h46v211h57V0H23" id="as"/><path d="M99-251c69 0 84 53 88 123 5 99-61 162-144 118-15-8-21-25-26-45l46-6c4 31 50 33 63 7 7-15 12-36 12-60-9 18-29 28-54 28-48 0-72-32-72-82 0-55 31-83 87-83zm-1 128c24 0 37-16 37-39 0-27-10-51-37-51-25 0-35 19-35 45 0 25 10 45 35 45" id="at"/><path d="M101-251c68 0 84 54 84 127C185-50 166 4 99 4S15-52 14-124c-1-75 17-127 87-127zm-1 216c37-5 36-46 36-89s4-89-36-89c-39 0-36 45-36 89 0 43-3 85 36 89" id="au"/><g id="k"><use transform="matrix(0.07796296296296291,0,0,0.07796296296296291,0,0)" xlink:href="#as"/><use transform="matrix(0.07796296296296291,0,0,0.07796296296296291,15.592592592592583,0)" xlink:href="#at"/><use transform="matrix(0.07796296296296291,0,0,0.07796296296296291,31.185185185185166,0)" xlink:href="#au"/><use transform="matrix(0.07796296296296291,0,0,0.07796296296296291,46.77777777777775,0)" xlink:href="#as"/></g><g id="l"><use transform="matrix(0.07796296296296291,0,0,0.07796296296296291,0,0)" xlink:href="#am"/><use transform="matrix(0.07796296296296291,0,0,0.07796296296296291,15.592592592592583,0)" xlink:href="#an"/><use transform="matrix(0.07796296296296291,0,0,0.07796296296296291,31.185185185185166,0)" xlink:href="#U"/><use transform="matrix(0.07796296296296291,0,0,0.07796296296296291,46.77777777777775,0)" xlink:href="#V"/><use transform="matrix(0.07796296296296291,0,0,0.07796296296296291,57.692592592592554,0)" xlink:href="#ao"/><use transform="matrix(0.07796296296296291,0,0,0.07796296296296291,73.28518518518514,0)" xlink:href="#ap"/><use transform="matrix(0.07796296296296291,0,0,0.07796296296296291,90.35907407407402,0)" xlink:href="#U"/><use transform="matrix(0.07796296296296291,0,0,0.07796296296296291,105.9516666666666,0)" xlink:href="#T"/><use transform="matrix(0.07796296296296291,0,0,0.07796296296296291,115.2292592592592,0)" xlink:href="#an"/></g><path d="M15-91v-56l181-69v40L49-119l147 57v40" id="av"/><g id="m"><use transform="matrix(0.07796296296296291,0,0,0.07796296296296291,0,0)" xlink:href="#av"/><use transform="matrix(0.07796296296296291,0,0,0.07796296296296291,16.372222222222213,0)" xlink:href="#ar"/></g><path d="M182-182c0 78-84 86-111 141h115V0H12c-6-101 99-100 120-180 1-22-12-31-33-32-23 0-32 14-35 34l-49-3c5-45 32-70 84-70 51 0 83 22 83 69" id="aw"/><g id="n"><use transform="matrix(0.07796296296296291,0,0,0.07796296296296291,0,0)" xlink:href="#aw"/><use transform="matrix(0.07796296296296291,0,0,0.07796296296296291,15.592592592592583,0)" xlink:href="#au"/><use transform="matrix(0.07796296296296291,0,0,0.07796296296296291,31.185185185185166,0)" xlink:href="#at"/><use transform="matrix(0.07796296296296291,0,0,0.07796296296296291,46.77777777777775,0)" xlink:href="#at"/></g><path d="M146-102V0H94v-102L6-248h54l60 105 60-105h54" id="ax"/><path d="M137-138c1-29-70-34-71-4 15 46 118 7 119 86 1 83-164 76-172 9l43-7c4 19 20 25 44 25 33 8 57-30 24-41C81-84 22-81 20-136c-2-80 154-74 161-7" id="ay"/><g id="o"><use transform="matrix(0.0685185185185185,0,0,0.0685185185185185,0,0)" xlink:href="#ax"/><use transform="matrix(0.0685185185185185,0,0,0.0685185185185185,15.074074074074073,0)" xlink:href="#an"/><use transform="matrix(0.0685185185185185,0,0,0.0685185185185185,28.77777777777777,0)" xlink:href="#ay"/></g><path fill="#e81313" d="M175 0L67-191c6 58 2 128 3 191H24v-248h59L193-55c-6-58-2-129-3-193h46V0h-61" id="az"/><path fill="#e81313" d="M110-194c64 0 96 36 96 99 0 64-35 99-97 99-61 0-95-36-95-99 0-62 34-99 96-99zm-1 164c35 0 45-28 45-65 0-40-10-65-43-65-34 0-45 26-45 65 0 36 10 65 43 65" id="aA"/><g id="p"><use transform="matrix(0.08641975308641976,0,0,0.08641975308641976,0,0)" xlink:href="#az"/><use transform="matrix(0.08641975308641976,0,0,0.08641975308641976,22.38271604938272,0)" xlink:href="#aA"/></g><g id="q"><use transform="matrix(0.01453993055555555,0,0,0.01453993055555555,0,0)" xlink:href="#W"/><use transform="matrix(0.01453993055555555,0,0,0.01453993055555555,17.86957465277777,0)" xlink:href="#X"/><use transform="matrix(0.01453993055555555,0,0,0.01453993055555555,35.73914930555554,0)" xlink:href="#Y"/><use transform="matrix(0.01453993055555555,0,0,0.01453993055555555,53.608723958333314,0)" xlink:href="#Z"/><use transform="matrix(0.01453993055555555,0,0,0.01453993055555555,71.47829861111109,0)" xlink:href="#aa"/><use transform="matrix(0.01453993055555555,0,0,0.01453993055555555,89.34787326388886,0)" xlink:href="#ab"/><use transform="matrix(0.01453993055555555,0,0,0.01453993055555555,107.21744791666663,0)" xlink:href="#ac"/><use transform="matrix(0.01453993055555555,0,0,0.01453993055555555,125.0870225694444,0)" xlink:href="#ad"/><use transform="matrix(0.01453993055555555,0,0,0.01453993055555555,142.95659722222217,0)" xlink:href="#Z"/><use transform="matrix(0.01453993055555555,0,0,0.01453993055555555,160.82617187499994,0)" xlink:href="#ae"/></g><path d="M539-1556h149V492H539v-2048" id="aB"/><path d="M1055-469c0 318-203 489-527 489-149 0-268-26-356-79v-172c96 64 216 96 360 96 224 0 336-105 336-314 0-196-115-294-344-294-59 0-136 9-231 26l-90-57 55-688h690v166H416l-39 419c71-13 141-20 209-20 270-4 469 161 469 428" id="aC"/><path d="M334 0l563-1296H143v-166h940v145L528 0H334" id="aD"/><path d="M614-1485c230 0 412 129 412 352 0 153-87 273-262 359 206 107 309 238 309 393 0 249-200 401-459 401-271 0-458-134-458-393 0-171 94-302 282-393-157-97-235-220-235-369 0-219 188-350 411-350zm-2 152c-137 0-233 71-231 207 0 60 16 110 49 152s95 84 186 126c155-69 232-161 232-278 1-138-96-207-236-207zm-2 1202c171 0 285-85 285-248 0-60-22-112-63-159-43-49-141-111-244-158-169 81-254 189-254 325 0 160 92 240 276 240" id="aE"/><path d="M594-1483c248 0 420 149 418 391 0 79-21 160-59 244-73 161-414 504-572 674v8h688V0H158v-156c172-193 489-508 607-698 43-69 62-147 62-231 0-146-91-244-235-244-107 0-213 46-318 137l-102-119c128-115 269-172 422-172" id="aF"/><g id="r"><use transform="matrix(0.01453993055555555,0,0,0.01453993055555555,0,0)" xlink:href="#ai"/><use transform="matrix(0.01453993055555555,0,0,0.01453993055555555,17.86957465277777,0)" xlink:href="#aB"/><use transform="matrix(0.01453993055555555,0,0,0.01453993055555555,35.73914930555554,0)" xlink:href="#aB"/><use transform="matrix(0.01453993055555555,0,0,0.01453993055555555,53.608723958333314,0)" xlink:href="#aj"/><use transform="matrix(0.01453993055555555,0,0,0.01453993055555555,71.47829861111109,0)" xlink:href="#aB"/><use transform="matrix(0.01453993055555555,0,0,0.01453993055555555,89.34787326388886,0)" xlink:href="#aB"/><use transform="matrix(0.01453993055555555,0,0,0.01453993055555555,107.21744791666663,0)" xlink:href="#aC"/><use transform="matrix(0.01453993055555555,0,0,0.01453993055555555,125.0870225694444,0)" xlink:href="#aB"/><use transform="matrix(0.01453993055555555,0,0,0.01453993055555555,142.95659722222217,0)" xlink:href="#aB"/><use transform="matrix(0.01453993055555555,0,0,0.01453993055555555,160.82617187499994,0)" xlink:href="#aD"/><use transform="matrix(0.01453993055555555,0,0,0.01453993055555555,178.69574652777771,0)" xlink:href="#aB"/><use transform="matrix(0.01453993055555555,0,0,0.01453993055555555,196.5653211805555,0)" xlink:href="#aB"/><use transform="matrix(0.01453993055555555,0,0,0.01453993055555555,214.43489583333326,0)" xlink:href="#aE"/><use transform="matrix(0.01453993055555555,0,0,0.01453993055555555,232.30447048611103,0)" xlink:href="#aB"/><use transform="matrix(0.01453993055555555,0,0,0.01453993055555555,250.1740451388888,0)" xlink:href="#aB"/><use transform="matrix(0.01453993055555555,0,0,0.01453993055555555,268.0436197916666,0)" xlink:href="#ai"/><use transform="matrix(0.01453993055555555,0,0,0.01453993055555555,285.91319444444434,0)" xlink:href="#aF"/></g><path d="M152-852v-149h923v149H152zm0 410v-150h923v150H152" id="aG"/><use transform="matrix(0.01453993055555555,0,0,0.01453993055555555,0,0)" xlink:href="#aG" id="s"/><path d="M1126-328H913V0H737v-328H61v-159l664-983h188v976h213v166zM737-494c1-292-4-481 13-788h-9c-24 68-55 128-90 180L240-494h497" id="aH"/><use transform="matrix(0.01453993055555555,0,0,0.01453993055555555,0,0)" xlink:href="#aH" id="t"/><g id="u"><use transform="matrix(0.01453993055555555,0,0,0.01453993055555555,0,0)" xlink:href="#aB"/><use transform="matrix(0.01453993055555555,0,0,0.01453993055555555,17.86957465277777,0)" xlink:href="#aB"/></g><path d="M1075-471c0 288-166 493-444 491-145 0-261-56-347-168S154-420 154-625c0-572 213-858 639-858 69 0 127 6 172 19v155c-47-16-103-24-166-24-149 0-262 47-337 141S347-949 340-745h12c63-113 166-170 307-170 262 0 416 178 416 444zM629-133c183-3 270-141 270-338 0-183-88-297-264-301-154-4-299 123-299 266 0 185 113 376 293 373" id="aI"/><g id="v"><use transform="matrix(0.01453993055555555,0,0,0.01453993055555555,0,0)" xlink:href="#aI"/><use transform="matrix(0.01453993055555555,0,0,0.01453993055555555,17.86957465277777,0)" xlink:href="#aB"/><use transform="matrix(0.01453993055555555,0,0,0.01453993055555555,35.73914930555554,0)" xlink:href="#aB"/></g><path d="M154-991c0-288 166-494 444-492 147 0 262 57 348 171s129 272 129 474c0 572-213 858-639 858-70 0-127-6-172-18v-156c45 17 100 25 166 25 149 0 261-47 336-141s116-243 123-447h-12c-64 113-167 170-308 170-262 0-415-176-415-444zm446-338c-185 4-270 138-270 338 0 183 88 296 264 301 153 4 299-124 299-266 0-185-111-377-293-373" id="aJ"/><use transform="matrix(0.01453993055555555,0,0,0.01453993055555555,0,0)" xlink:href="#aJ" id="w"/><g id="x"><use transform="matrix(0.01453993055555555,0,0,0.01453993055555555,0,0)" xlink:href="#ai"/><use transform="matrix(0.01453993055555555,0,0,0.01453993055555555,17.86957465277777,0)" xlink:href="#ai"/></g><path d="M82-1098h188l262 654c55 137 84 233 89 290h6c15-75 45-172 90-292l239-652h189L670 143c-45 116-99 201-156 261-87 92-259 104-414 71V330c92 17 226 18 286-29 67-53 115-195 153-291" id="aK"/><g id="y"><use transform="matrix(0.01453993055555555,0,0,0.01453993055555555,0,0)" xlink:href="#ac"/><use transform="matrix(0.01453993055555555,0,0,0.01453993055555555,17.86957465277777,0)" xlink:href="#ad"/><use transform="matrix(0.01453993055555555,0,0,0.01453993055555555,35.73914930555554,0)" xlink:href="#aK"/><use transform="matrix(0.01453993055555555,0,0,0.01453993055555555,53.608723958333314,0)" xlink:href="#ab"/><use transform="matrix(0.01453993055555555,0,0,0.01453993055555555,71.47829861111109,0)" xlink:href="#ac"/><use transform="matrix(0.01453993055555555,0,0,0.01453993055555555,89.34787326388886,0)" xlink:href="#ad"/><use transform="matrix(0.01453993055555555,0,0,0.01453993055555555,107.21744791666663,0)" xlink:href="#Z"/><use transform="matrix(0.01453993055555555,0,0,0.01453993055555555,125.0870225694444,0)" xlink:href="#ae"/></g><g id="z"><use transform="matrix(0.01453993055555555,0,0,0.01453993055555555,0,0)" xlink:href="#ac"/><use transform="matrix(0.01453993055555555,0,0,0.01453993055555555,17.86957465277777,0)" xlink:href="#ad"/><use transform="matrix(0.01453993055555555,0,0,0.01453993055555555,35.73914930555554,0)" xlink:href="#aK"/><use transform="matrix(0.01453993055555555,0,0,0.01453993055555555,53.608723958333314,0)" xlink:href="#ab"/><use transform="matrix(0.01453993055555555,0,0,0.01453993055555555,71.47829861111109,0)" xlink:href="#ac"/><use transform="matrix(0.01453993055555555,0,0,0.01453993055555555,89.34787326388886,0)" xlink:href="#ad"/><use transform="matrix(0.01453993055555555,0,0,0.01453993055555555,107.21744791666663,0)" xlink:href="#Z"/><use transform="matrix(0.01453993055555555,0,0,0.01453993055555555,125.0870225694444,0)" xlink:href="#ae"/></g><g id="A"><use transform="matrix(0.01453993055555555,0,0,0.01453993055555555,0,0)" xlink:href="#aj"/><use transform="matrix(0.01453993055555555,0,0,0.01453993055555555,17.86957465277777,0)" xlink:href="#ai"/></g><path fill="#008a0e" d="M146-102V0H94v-102L6-248h54l60 105 60-105h54" id="aL"/><path fill="#008a0e" d="M185-48c-13 30-37 53-82 52C43 2 14-33 14-96s30-98 90-98c62 0 83 45 84 108H66c0 31 8 55 39 56 18 0 30-7 34-22zm-45-69c5-46-57-63-70-21-2 6-4 13-4 21h74" id="aM"/><path fill="#008a0e" d="M137-138c1-29-70-34-71-4 15 46 118 7 119 86 1 83-164 76-172 9l43-7c4 19 20 25 44 25 33 8 57-30 24-41C81-84 22-81 20-136c-2-80 154-74 161-7" id="aN"/><g id="B"><use transform="matrix(0.08703703703703701,0,0,0.08703703703703701,0,0)" xlink:href="#aL"/><use transform="matrix(0.08703703703703701,0,0,0.08703703703703701,19.14814814814814,0)" xlink:href="#aM"/><use transform="matrix(0.08703703703703701,0,0,0.08703703703703701,36.55555555555554,0)" xlink:href="#aN"/></g><path fill="#008a0e" d="M123 10C108 53 80 86 19 72V37c35 8 53-11 59-39L3-190h52l48 148c12-52 28-100 44-148h51" id="aO"/><g id="C"><use transform="matrix(0.08703703703703691,0,0,0.08703703703703691,0,0)" xlink:href="#aO"/><use transform="matrix(0.08703703703703691,0,0,0.08703703703703691,17.407407407407383,0)" xlink:href="#aM"/><use transform="matrix(0.08703703703703691,0,0,0.08703703703703691,34.81481481481477,0)" xlink:href="#aN"/></g><g id="D"><use transform="matrix(0.01453993055555555,0,0,0.01453993055555555,0,0)" xlink:href="#ac"/><use transform="matrix(0.01453993055555555,0,0,0.01453993055555555,17.86957465277777,0)" xlink:href="#ad"/><use transform="matrix(0.01453993055555555,0,0,0.01453993055555555,35.73914930555554,0)" xlink:href="#aK"/><use transform="matrix(0.01453993055555555,0,0,0.01453993055555555,53.608723958333314,0)" xlink:href="#ab"/><use transform="matrix(0.01453993055555555,0,0,0.01453993055555555,71.47829861111109,0)" xlink:href="#ac"/><use transform="matrix(0.01453993055555555,0,0,0.01453993055555555,89.34787326388886,0)" xlink:href="#ad"/><use transform="matrix(0.01453993055555555,0,0,0.01453993055555555,107.21744791666663,0)" xlink:href="#Z"/><use transform="matrix(0.01453993055555555,0,0,0.01453993055555555,125.0870225694444,0)" xlink:href="#ad"/></g><g id="E"><use transform="matrix(0.01453993055555555,0,0,0.01453993055555555,0,0)" xlink:href="#aj"/><use transform="matrix(0.01453993055555555,0,0,0.01453993055555555,17.86957465277777,0)" xlink:href="#ai"/></g><g id="F"><use transform="matrix(0.08703703703703701,0,0,0.08703703703703701,0,0)" xlink:href="#aO"/><use transform="matrix(0.08703703703703701,0,0,0.08703703703703701,17.4074074074074,0)" xlink:href="#aM"/><use transform="matrix(0.08703703703703701,0,0,0.08703703703703701,34.8148148148148,0)" xlink:href="#aN"/></g><use transform="matrix(0.01453993055555555,0,0,0.01453993055555555,0,0)" xlink:href="#aF" id="G"/><path d="M442-897c93-139 173-221 377-221 79 0 159 15 240 45l-49 166c-82-30-157-45-224-45-221 0-340 134-340 360V0H264v-1098h148l22 201h8" id="aP"/><g id="H"><use transform="matrix(0.01453993055555555,0,0,0.01453993055555555,0,0)" xlink:href="#aK"/><use transform="matrix(0.01453993055555555,0,0,0.01453993055555555,17.86957465277777,0)" xlink:href="#ae"/><use transform="matrix(0.01453993055555555,0,0,0.01453993055555555,35.73914930555554,0)" xlink:href="#ad"/><use transform="matrix(0.01453993055555555,0,0,0.01453993055555555,53.608723958333314,0)" xlink:href="#aP"/><use transform="matrix(0.01453993055555555,0,0,0.01453993055555555,71.47829861111109,0)" xlink:href="#ab"/><use transform="matrix(0.01453993055555555,0,0,0.01453993055555555,89.34787326388886,0)" xlink:href="#ac"/><use transform="matrix(0.01453993055555555,0,0,0.01453993055555555,107.21744791666663,0)" xlink:href="#ad"/><use transform="matrix(0.01453993055555555,0,0,0.01453993055555555,125.0870225694444,0)" xlink:href="#Z"/><use transform="matrix(0.01453993055555555,0,0,0.01453993055555555,142.95659722222217,0)" xlink:href="#ae"/></g><path d="M586-1133c0 202-102 349-295 349C107-784 0-937 0-1133c0-204 102-346 295-346 182 0 291 151 291 346zM293-903c93 0 139-77 139-230 0-150-46-225-139-225-94 0-141 75-141 225 0 153 47 230 141 230zm764-559L328 0H170l729-1462h158zm172 1132c0 201-103 349-295 348-183 0-291-153-291-348 0-204 102-346 295-346 182 0 291 151 291 346zM936-100c93 0 139-77 139-230 0-150-46-225-139-225-94 0-141 75-141 225 0 153 47 230 141 230" id="aQ"/><use transform="matrix(0.01453993055555555,0,0,0.01453993055555555,0,0)" xlink:href="#aQ" id="I"/><use transform="matrix(0.01453993055555555,0,0,0.01453993055555555,0,0)" xlink:href="#aH" id="J"/><use transform="matrix(0.01453993055555555,0,0,0.01453993055555555,0,0)" xlink:href="#aG" id="K"/><use transform="matrix(0.01453993055555555,0,0,0.01453993055555555,0,0)" xlink:href="#ag" id="L"/><g id="M"><use transform="matrix(0.01453993055555555,0,0,0.01453993055555555,0,0)" xlink:href="#aj"/><use transform="matrix(0.01453993055555555,0,0,0.01453993055555555,17.86957465277777,0)" xlink:href="#ag"/></g><g id="N"><use transform="matrix(0.08703703703703701,0,0,0.08703703703703701,0,0)" xlink:href="#az"/><use transform="matrix(0.08703703703703701,0,0,0.08703703703703701,22.542592592592584,0)" xlink:href="#aA"/></g><g id="O"><use transform="matrix(0.01453993055555555,0,0,0.01453993055555555,0,0)" xlink:href="#aF"/><use transform="matrix(0.01453993055555555,0,0,0.01453993055555555,17.86957465277777,0)" xlink:href="#aJ"/></g><path d="M172-543c0-365 197-575 553-575 119 0 231 20 336 59l-62 158c-100-38-189-57-268-57-247 0-371 138-371 413 0 271 120 406 361 406 105 0 212-21 321-62v160C953 0 843 20 713 20c-347 1-541-210-541-563" id="aR"/><path d="M532-1413l-268-21v-122h451v1413l352 20V0H188v-123l344-20v-1270" id="aS"/><path d="M578-131c239 0 309-137 309-397v-570h182V0H922l-27-147h-10C815-36 704 20 551 20c-261 0-391-134-391-401v-717h182v707c0 173 79 260 236 260" id="aT"/><g id="P"><use transform="matrix(0.02647569444444442,0,0,0.02647569444444442,0,0)" xlink:href="#aR"/><use transform="matrix(0.02647569444444442,0,0,0.02647569444444442,32.53862847222219,0)" xlink:href="#ad"/><use transform="matrix(0.02647569444444442,0,0,0.02647569444444442,65.07725694444439,0)" xlink:href="#aS"/><use transform="matrix(0.02647569444444442,0,0,0.02647569444444442,97.61588541666657,0)" xlink:href="#aR"/><use transform="matrix(0.02647569444444442,0,0,0.02647569444444442,130.15451388888877,0)" xlink:href="#aT"/><use transform="matrix(0.02647569444444442,0,0,0.02647569444444442,162.69314236111097,0)" xlink:href="#aS"/><use transform="matrix(0.02647569444444442,0,0,0.02647569444444442,195.23177083333317,0)" xlink:href="#ad"/><use transform="matrix(0.02647569444444442,0,0,0.02647569444444442,227.7703993055554,0)" xlink:href="#Z"/><use transform="matrix(0.02647569444444442,0,0,0.02647569444444442,260.30902777777754,0)" xlink:href="#ae"/></g><path d="M743-1550c71 0 107 38 107 114 0 77-36 115-107 115s-106-38-106-115c0-76 35-114 106-114zM854 117c0 250-172 375-432 375-109 0-205-12-287-35V303c89 26 186 39 289 39 147 0 248-74 248-215V-954l-420-21v-123h602V117" id="aU"/><path d="M739-1436c0 71-43 115-106 115-71 0-107-38-107-115 0-76 36-114 107-114s106 38 106 114zM541-954l-269-21v-123h451v955l352 20V0H197v-123l344-20v-811" id="aV"/><g id="Q"><use transform="matrix(0.02647569444444442,0,0,0.02647569444444442,0,0)" xlink:href="#aU"/><use transform="matrix(0.02647569444444442,0,0,0.02647569444444442,32.53862847222219,0)" xlink:href="#aT"/><use transform="matrix(0.02647569444444442,0,0,0.02647569444444442,65.07725694444439,0)" xlink:href="#aS"/><use transform="matrix(0.02647569444444442,0,0,0.02647569444444442,97.61588541666657,0)" xlink:href="#aV"/><use transform="matrix(0.02647569444444442,0,0,0.02647569444444442,130.15451388888877,0)" xlink:href="#ad"/><use transform="matrix(0.02647569444444442,0,0,0.02647569444444442,162.69314236111097,0)" xlink:href="#Y"/></g><g id="R"><use transform="matrix(0.02647569444444442,0,0,0.02647569444444442,0,0)" xlink:href="#ac"/><use transform="matrix(0.02647569444444442,0,0,0.02647569444444442,32.53862847222219,0)" xlink:href="#ad"/><use transform="matrix(0.02647569444444442,0,0,0.02647569444444442,65.07725694444439,0)" xlink:href="#aK"/></g></defs></g></svg>