<svg xmlns="http://www.w3.org/2000/svg" xmlns:xlink="http://www.w3.org/1999/xlink" xmlns:lucid="lucid" width="1974.48" height="3124"><g transform="translate(40 242)" lucid:page-tab-id="0_0"><path d="M788-220c17.67 0 32 17.9 32 40s-14.33 40-32 40h-96c-17.67 0-32-17.9-32-40s14.33-40 32-40z" stroke="#000" stroke-opacity="0" stroke-width="4" fill="#d2d3d5"/><use xlink:href="#a" transform="matrix(1,0,0,1,665,-215) translate(48.99722222222223 39.93333333333334)"/><path d="M733.6 228.18a10.67 10.67 0 0 1 12.8 0l137.2 102.9a6 6 0 0 1 0 9.6l-137.2 102.9a10.67 10.67 0 0 1-12.8 0l-137.2-102.9a6 6 0 0 1 0-9.6z" stroke="#6db1ff" stroke-width="4" fill="#fff"/><use xlink:href="#b" transform="matrix(1,0,0,1,595,228.38183522761892) translate(47.917534722222214 100.28798776455027)"/><use xlink:href="#c" transform="matrix(1,0,0,1,595,228.38183522761892) translate(200.47569444444446 100.28798776455027)"/><use xlink:href="#d" transform="matrix(1,0,0,1,595,228.38183522761892) translate(228.21354166666669 100.28798776455027)"/><use xlink:href="#e" transform="matrix(1,0,0,1,595,228.38183522761892) translate(40.98307291666666 130.71374834656086)"/><use xlink:href="#f" transform="matrix(1,0,0,1,595,228.38183522761892) translate(193.54123263888889 130.71374834656086)"/><use xlink:href="#g" transform="matrix(1,0,0,1,595,228.38183522761892) translate(221.27907986111111 130.71374834656086)"/><path d="M768 2780c17.67 0 32 17.9 32 40s-14.33 40-32 40h-96c-17.67 0-32-17.9-32-40s14.33-40 32-40z" stroke="#000" stroke-opacity="0" stroke-width="4" fill="#d2d3d5"/><use xlink:href="#h" transform="matrix(1,0,0,1,645,2785) translate(49.64814814814815 39.93333333333334)"/><path d="M740-138v35.88" stroke="#333" stroke-width="4" fill="none"/><path d="M741.98-137.95H738V-140H742z" stroke="#333" stroke-width=".05" fill="#333"/><path d="M740-85.85l-4.63-14.27h9.26z" stroke="#333" stroke-width="4" fill="#333"/><path d="M733.55-75.26a10.9 10.9 0 0 1 12.9 0l152.73 112.2a5.88 5.88 0 0 1 0 9.5l-152.73 112.2a10.9 10.9 0 0 1-12.9 0L580.82 46.45a5.88 5.88 0 0 1 0-9.5z" stroke="#6db1ff" stroke-width="4" fill="#fff"/><use xlink:href="#i" transform="matrix(1,0,0,1,579.3694376290115,-75) translate(71.26861111111114 107.9009330316742)"/><use xlink:href="#j" transform="matrix(1,0,0,1,579.3694376290115,-75) translate(172.26472222222222 107.9009330316742)"/><use xlink:href="#k" transform="matrix(1,0,0,1,579.3694376290115,-75) translate(203.17583333333332 107.9009330316742)"/><use xlink:href="#l" transform="matrix(1,0,0,1,579.3694376290115,-75) translate(71.26861111111114 134.6590669683258)"/><use xlink:href="#m" transform="matrix(1,0,0,1,579.3694376290115,-75) translate(172.26472222222222 134.6590669683258)"/><use xlink:href="#n" transform="matrix(1,0,0,1,579.3694376290115,-75) translate(203.17583333333332 134.6590669683258)"/><path d="M740.98 205.54H739v-9.68H741zm0-31.28H739v-10.5H741z" stroke="#008a0e" stroke-width=".05" fill="#008a0e"/><path d="M740 162.76l.98-.06v1.1H739v-1.1z" fill="#008a0e"/><path stroke="#008a0e" stroke-width=".05" fill="#008a0e"/><path d="M740 220.8l-4.63-14.26h9.26z" fill="#008a0e"/><path d="M740 223.96l-5.98-18.4h11.96zm-3.3-16.44l3.3 10.13 3.3-10.13z" stroke="#008a0e" stroke-width=".05" fill="#008a0e"/><use xlink:href="#o" transform="matrix(1,0,0,1,725.325,174.25795712665405) translate(0.005000000000000782 14.4)"/><path d="M1920.97 2808.04l-.15 2-.48 1.97-.78 1.9-1.06 1.73-1.32 1.55-1.55 1.32-1.74 1.06-1.9.78-1.97.48-2 .15H818.5v-1.94h1089.46l1.76-.14 1.7-.42 1.58-.66 1.48-.9 1.3-1.13 1.14-1.32.9-1.48.66-1.6.4-1.68.14-1.76v-945.53h1.95zM1910.03 40.87l1.98.48 1.9.78 1.73 1.06 1.55 1.3 1.32 1.56 1.06 1.74.78 1.88.48 1.98.15 2v1787.17h-1.94V53.73l-.14-1.76-.42-1.7-.66-1.58-.9-1.5-1.13-1.3-1.32-1.13-1.48-.9-1.6-.66-1.68-.4-1.76-.13H904.6v-1.95h1003.44z" stroke="#e81313" stroke-width=".05" fill="#e81313"/><path d="M904.62 42.67h-1.12l.1-.98-.1-.98h1.12z" fill="#e81313"/><path stroke="#e81313" stroke-width=".05" fill="#e81313"/><path d="M817.5 2824.64l-14.26-4.64 14.26-4.64z" fill="#e81313"/><path d="M818.48 2825.98l-18.4-5.98 18.4-5.98zm-12.1-5.98l10.15 3.3v-6.6z" stroke="#e81313" stroke-width=".05" fill="#e81313"/><use xlink:href="#p" transform="matrix(1,0,0,1,1908.525,1840.8260204023245) translate(0.005000000000000782 14.4)"/><path d="M1800.97 2688.04l-.15 2-.48 1.97-.78 1.9-1.06 1.73-1.32 1.55-1.55 1.32-1.74 1.06-1.9.78-1.97.48-2 .15h-1056l-1.75.14-1.7.42-1.58.66-1.48.9-1.3 1.13-1.14 1.32-.9 1.48-.66 1.6-.4 1.68-.14 1.76v49.46H719v-49.54l.16-2 .48-1.97.78-1.9 1.06-1.73 1.32-1.55 1.55-1.32 1.74-1.06 1.9-.78 1.97-.48 2-.15h1056l1.75-.14 1.7-.42 1.58-.66 1.48-.9 1.3-1.13 1.14-1.32.9-1.48.66-1.6.4-1.68.14-1.76V1652.74h1.95zm-10.94-2352.98l1.98.48 1.9.78 1.73 1.06 1.55 1.32 1.32 1.55 1.06 1.74.78 1.87.48 1.98.15 2v1283.3h-1.94V347.9l-.14-1.76-.42-1.68-.66-1.6-.9-1.48-1.13-1.3-1.32-1.14-1.48-.9-1.6-.66-1.68-.4-1.76-.14H889v-1.95h899.04z" stroke="#e81313" stroke-width=".05" fill="#e81313"/><path d="M889.03 336.86h-1.1l.08-.98-.08-.97h1.1z" fill="#e81313"/><path stroke="#e81313" stroke-width=".05" fill="#e81313"/><path d="M720 2776.76l-4.63-14.26h9.26z" fill="#e81313"/><path d="M720 2779.92l-5.98-18.4h11.96zm-3.3-16.45l3.3 10.14 3.3-10.13z" stroke="#e81313" stroke-width=".05" fill="#e81313"/><use xlink:href="#p" transform="matrix(1,0,0,1,1788.525,1631.1452118123836) translate(0.005000000000000782 14.4)"/><path d="M123.6 979.8a10.67 10.67 0 0 1 12.8 0l137.2 102.9a6 6 0 0 1 0 9.6l-137.2 102.9a10.67 10.67 0 0 1-12.8 0l-137.2-102.9a6 6 0 0 1 0-9.6z" stroke="#6db1ff" stroke-width="4" fill="#fff"/><use xlink:href="#q" transform="matrix(1,0,0,1,-15,980) translate(75.65538194444444 100.28798776455027)"/><use xlink:href="#r" transform="matrix(1,0,0,1,-15,980) translate(27.114149305555543 130.71374834656086)"/><path d="M1363.6 979.8a10.67 10.67 0 0 1 12.8 0l137.2 102.9a6 6 0 0 1 0 9.6l-137.2 102.9a10.67 10.67 0 0 1-12.8 0l-137.2-102.9a6 6 0 0 1 0-9.6z" stroke="#6db1ff" stroke-width="4" fill="#fff"/><use xlink:href="#b" transform="matrix(1,0,0,1,1225,980) translate(61.78645833333333 100.28798776455027)"/><use xlink:href="#s" transform="matrix(1,0,0,1,1225,980) translate(214.34461805555554 100.28798776455027)"/><use xlink:href="#t" transform="matrix(1,0,0,1,1225,980) translate(34.048611111111114 130.71374834656086)"/><use xlink:href="#u" transform="matrix(1,0,0,1,1225,980) translate(61.786458333333336 130.71374834656086)"/><use xlink:href="#v" transform="matrix(1,0,0,1,1225,980) translate(103.39322916666666 130.71374834656086)"/><use xlink:href="#w" transform="matrix(1,0,0,1,1225,980) translate(158.8689236111111 130.71374834656086)"/><use xlink:href="#u" transform="matrix(1,0,0,1,1225,980) translate(186.60677083333331 130.71374834656086)"/><use xlink:href="#x" transform="matrix(1,0,0,1,1225,980) translate(228.21354166666666 130.71374834656086)"/><path d="M733.6 513.18a10.67 10.67 0 0 1 12.8 0l137.2 102.9a6 6 0 0 1 0 9.6l-137.2 102.9a10.67 10.67 0 0 1-12.8 0l-137.2-102.9a6 6 0 0 1 0-9.6z" stroke="#6db1ff" stroke-width="4" fill="#fff"/><use xlink:href="#y" transform="matrix(1,0,0,1,595,513.3818352276189) translate(61.78645833333333 100.28798776455027)"/><use xlink:href="#c" transform="matrix(1,0,0,1,595,513.3818352276189) translate(186.60677083333334 100.28798776455027)"/><use xlink:href="#d" transform="matrix(1,0,0,1,595,513.3818352276189) translate(214.34461805555554 100.28798776455027)"/><use xlink:href="#z" transform="matrix(1,0,0,1,595,513.3818352276189) translate(54.85199652777777 130.71374834656086)"/><use xlink:href="#f" transform="matrix(1,0,0,1,595,513.3818352276189) translate(179.67230902777777 130.71374834656086)"/><use xlink:href="#A" transform="matrix(1,0,0,1,595,513.3818352276189) translate(207.41015625 130.71374834656086)"/><path d="M740.98 490.54H739v-6.47H741zm0-28.07H739v-13.75H741z" stroke="#008a0e" stroke-width=".05" fill="#008a0e"/><path d="M740 447.72l.98-.06v1.08H739v-1.08z" fill="#008a0e"/><path stroke="#008a0e" stroke-width=".05" fill="#008a0e"/><path d="M740 505.8l-4.63-14.26h9.26z" fill="#008a0e"/><path d="M740 508.96l-5.98-18.4h11.96zm-3.3-16.44l3.3 10.13 3.3-10.13z" stroke="#008a0e" stroke-width=".05" fill="#008a0e"/><use xlink:href="#o" transform="matrix(1,0,0,1,725.325,462.46713699252035) translate(0.005000000000000782 14.4)"/><path d="M1680.97 2568.04l-.15 2-.48 1.97-.78 1.9-1.06 1.73-1.32 1.55-1.55 1.32-1.74 1.06-1.9.78-1.97.48-2 .15h-936l-1.75.14-1.7.42-1.58.66-1.48.9-1.3 1.13-1.14 1.32-.9 1.48-.66 1.6-.4 1.68-.14 1.76v169.46H719v-169.54l.16-2 .48-1.97.78-1.9 1.06-1.73 1.32-1.55 1.55-1.32 1.74-1.06 1.9-.78 1.97-.48 2-.15h936l1.75-.14 1.7-.42 1.58-.66 1.48-.9 1.3-1.13 1.14-1.32.9-1.48.66-1.6.4-1.68.14-1.76v-772.72h1.95zm-10.94-1947.98l1.98.48 1.9.78 1.73 1.06 1.55 1.33 1.32 1.55 1.06 1.74.78 1.87.48 1.98.15 2v1140.8h-1.94V632.9l-.14-1.76-.42-1.68-.66-1.6-.9-1.48-1.13-1.3-1.32-1.13-1.48-.9-1.6-.67-1.68-.4-1.76-.14H889v-1.95h779.04z" stroke="#e81313" stroke-width=".05" fill="#e81313"/><path d="M889.03 621.86h-1.1l.08-.98-.08-.97h1.1z" fill="#e81313"/><path stroke="#e81313" stroke-width=".05" fill="#e81313"/><path d="M720 2776.76l-4.63-14.26h9.26z" fill="#e81313"/><path d="M720 2779.92l-5.98-18.4h11.96zm-3.3-16.45l3.3 10.14 3.3-10.13z" stroke="#e81313" stroke-width=".05" fill="#e81313"/><use xlink:href="#p" transform="matrix(1,0,0,1,1668.525,1773.6452118123836) translate(0.005000000000000782 14.4)"/><path d="M1358.04 769.7l2 .14 1.97.48 1.9.78 1.73 1.06 1.55 1.33 1.32 1.53 1.06 1.74.78 1.88.48 1.98.15 2v174.53h-1.94V782.7l-.14-1.76-.42-1.68-.66-1.6-.9-1.48-1.13-1.3-1.32-1.13-1.48-.9-1.6-.67-1.68-.4-1.76-.14h-319.24v-1.95zm-616.93-9.3l.42 1.67.66 1.6.9 1.47 1.13 1.32 1.32 1.12 1.48.9 1.6.66 1.68.4 1.76.15h258.68v1.94H751.96l-2-.16L748 771l-1.9-.77-1.73-1.07-1.55-1.32-1.32-1.55-1.06-1.75-.78-1.88-.48-1.98-.15-2v-24.98h1.95v24.9z" stroke="#008a0e" stroke-width=".05" fill="#008a0e"/><path d="M740 732.72l.98-.06v1.1H739v-1.1z" fill="#008a0e"/><path stroke="#008a0e" stroke-width=".05" fill="#008a0e"/><path d="M1370 972.43l-4.63-14.27h9.27z" fill="#008a0e"/><path d="M1370 975.58l-5.98-18.4h11.96zm-3.3-16.44l3.3 10.13 3.3-10.13z" stroke="#008a0e" stroke-width=".05" fill="#008a0e"/><use xlink:href="#B" transform="matrix(1,0,0,1,1010.7197265054856,759.8625391044161) translate(0.005000000000000782 14.4)"/><path d="M336.8 770.98H142.05l-1.76.13-1.7.42-1.58.66-1.48.9-1.3 1.13-1.14 1.32-.9 1.48-.66 1.6-.4 1.68-.15 1.76v175.12h-1.94v-175.2l.15-2 .48-1.97.78-1.9 1.06-1.73 1.32-1.55 1.55-1.32 1.74-1.06 1.9-.78 1.97-.48 2-.15H336.8zM741 758.03l-.16 2-.48 1.97-.78 1.9-1.06 1.73-1.32 1.55-1.55 1.32-1.74 1.06-1.9.78-1.97.48-2 .15H364.82v-1.95h363.16l1.76-.13 1.7-.42 1.58-.66 1.48-.9 1.3-1.13 1.14-1.32.9-1.48.66-1.6.4-1.68.14-1.76v-24.24H741z" stroke="#008a0e" stroke-width=".05" fill="#008a0e"/><path d="M740 732.72l.98-.06v1.1H739v-1.1z" fill="#008a0e"/><path stroke="#008a0e" stroke-width=".05" fill="#008a0e"/><path d="M130 972.43l-4.64-14.27h9.27z" fill="#008a0e"/><path d="M130 975.58l-5.98-18.4h11.96zm-3.3-16.44l3.3 10.13 3.3-10.13z" stroke="#008a0e" stroke-width=".05" fill="#008a0e"/><use xlink:href="#B" transform="matrix(1,0,0,1,336.8090823861905,759.2) translate(0.005000000000000782 14.4)"/><path d="M1370.97 1277.16h-1.94v-18.86h1.94zm0-40.46h-1.94v-36.36h1.94z" stroke="#008a0e" stroke-width=".05" fill="#008a0e"/><path d="M1370 1199.34l.97-.06v1.08h-1.94v-1.08z" fill="#008a0e"/><path stroke="#008a0e" stroke-width=".05" fill="#008a0e"/><path d="M1370 1292.43l-4.63-14.27h9.27z" fill="#008a0e"/><path d="M1370 1295.58l-5.98-18.4h11.96zm-3.3-16.44l3.3 10.13 3.3-10.13z" stroke="#008a0e" stroke-width=".05" fill="#008a0e"/><use xlink:href="#o" transform="matrix(1,0,0,1,1355.325,1236.7) translate(0.005000000000000782 14.4)"/><path d="M1363.6 1299.8a10.67 10.67 0 0 1 12.8 0l137.2 102.9a6 6 0 0 1 0 9.6l-137.2 102.9a10.67 10.67 0 0 1-12.8 0l-137.2-102.9a6 6 0 0 1 0-9.6z" stroke="#6db1ff" stroke-width="4" fill="#fff"/><use xlink:href="#C" transform="matrix(1,0,0,1,1225,1300) translate(54.85199652777777 115.50086805555556)"/><use xlink:href="#f" transform="matrix(1,0,0,1,1225,1300) translate(179.67230902777777 115.50086805555556)"/><use xlink:href="#D" transform="matrix(1,0,0,1,1225,1300) translate(207.41015625 115.50086805555556)"/><path d="M1558.98 2448.04l-.15 2-.48 1.97-.78 1.9-1.06 1.73-1.32 1.55-1.54 1.32-1.74 1.06-1.88.78-1.98.48-2 .15h-814l-1.76.14-1.7.42-1.58.66-1.48.9-1.3 1.13-1.14 1.32-.9 1.48-.66 1.6-.4 1.68-.14 1.76v289.46H719v-289.54l.16-2 .48-1.97.78-1.9 1.06-1.73 1.32-1.55 1.55-1.32 1.74-1.06 1.9-.78 1.97-.48 2-.15h814l1.76-.14 1.68-.42 1.6-.66 1.5-.9 1.3-1.13 1.13-1.32.9-1.48.66-1.6.4-1.68.13-1.76V1973.1h1.95zm-10.94-1041.36l1.98.48 1.88.78 1.74 1.06 1.54 1.32 1.33 1.55 1.07 1.74.78 1.9.48 1.97.15 2v532.02h-1.95v-531.96l-.13-1.76-.4-1.7-.67-1.58-.9-1.48-1.13-1.3-1.3-1.14-1.5-.9-1.6-.66-1.67-.4-1.76-.14H1519v-1.95h27.05z" stroke="#e81313" stroke-width=".05" fill="#e81313"/><path d="M1519.03 1408.47h-1.1l.08-.97-.08-.97h1.1z" fill="#e81313"/><path stroke="#e81313" stroke-width=".05" fill="#e81313"/><path d="M720 2776.76l-4.63-14.26h9.26z" fill="#e81313"/><path d="M720 2779.92l-5.98-18.4h11.96zm-3.3-16.45l3.3 10.14 3.3-10.13z" stroke="#e81313" stroke-width=".05" fill="#e81313"/><use xlink:href="#E" transform="matrix(1,0,0,1,1548.0085883971483,1951.4863605969583) translate(0.005000000000000782 14.4)"/><path d="M1370.97 2200.54l-.15 2-.48 1.97-.78 1.9-1.06 1.73-1.32 1.55-1.55 1.32-1.74 1.06-1.9.78-1.97.48-2 .15H1020.5v-1.94h337.46l1.76-.14 1.7-.42 1.58-.66 1.48-.9 1.3-1.13 1.14-1.32.9-1.48.66-1.6.4-1.68.14-1.76v-139.74h1.95zm0-161.42h-1.94v-518.78h1.94z" stroke="#008a0e" stroke-width=".05" fill="#008a0e"/><path d="M1370 1519.34l.97-.06v1.08h-1.94v-1.08z" fill="#008a0e"/><path stroke="#008a0e" stroke-width=".05" fill="#008a0e"/><path d="M1019.5 2217.14l-14.26-4.64 14.26-4.64z" fill="#008a0e"/><path d="M1020.48 2218.48l-18.4-5.98 18.4-5.98zm-12.1-5.98l10.15 3.3v-6.6z" stroke="#008a0e" stroke-width=".05" fill="#008a0e"/><use xlink:href="#B" transform="matrix(1,0,0,1,1356,2039.1187554477917) translate(0.005000000000000782 14.4)"/><path d="M740.98 902.16H739V837.5H741zm0-86.27H739V733.7H741z" stroke="#008a0e" stroke-width=".05" fill="#008a0e"/><path d="M740 732.72l.98-.06v1.1H739v-1.1z" fill="#008a0e"/><path stroke="#008a0e" stroke-width=".05" fill="#008a0e"/><path d="M740 917.43l-4.63-14.27h9.26z" fill="#008a0e"/><path d="M740 920.58l-5.98-18.4h11.96zm-3.3-16.44l3.3 10.13 3.3-10.13z" stroke="#008a0e" stroke-width=".05" fill="#008a0e"/><use xlink:href="#B" transform="matrix(1,0,0,1,726,815.8909176138095) translate(0.005000000000000782 14.4)"/><path d="M733.6 924.8a10.67 10.67 0 0 1 12.8 0l137.2 102.9a6 6 0 0 1 0 9.6l-137.2 102.9a10.67 10.67 0 0 1-12.8 0l-137.2-102.9a6 6 0 0 1 0-9.6z" stroke="#6db1ff" stroke-width="4" fill="#fff"/><use xlink:href="#b" transform="matrix(1,0,0,1,595,925) translate(61.78645833333333 100.28798776455027)"/><use xlink:href="#s" transform="matrix(1,0,0,1,595,925) translate(214.34461805555554 100.28798776455027)"/><use xlink:href="#F" transform="matrix(1,0,0,1,595,925) translate(138.06553819444446 130.71374834656086)"/><path d="M740.98 1202.16H739v-8.86H741zm0-30.46H739v-26.36H741z" stroke="#008a0e" stroke-width=".05" fill="#008a0e"/><path d="M740 1144.34l.98-.06v1.08H739v-1.08z" fill="#008a0e"/><path stroke="#008a0e" stroke-width=".05" fill="#008a0e"/><path d="M740 1217.43l-4.63-14.27h9.26z" fill="#008a0e"/><path d="M740 1220.58l-5.98-18.4h11.96zm-3.3-16.44l3.3 10.13 3.3-10.13z" stroke="#008a0e" stroke-width=".05" fill="#008a0e"/><use xlink:href="#B" transform="matrix(1,0,0,1,726,1171.7) translate(0.005000000000000782 14.4)"/><path d="M733.6 1224.8a10.67 10.67 0 0 1 12.8 0l137.2 102.9a6 6 0 0 1 0 9.6l-137.2 102.9a10.67 10.67 0 0 1-12.8 0l-137.2-102.9a6 6 0 0 1 0-9.6z" stroke="#6db1ff" stroke-width="4" fill="#fff"/><use xlink:href="#G" transform="matrix(1,0,0,1,595,1225) translate(54.85199652777777 100.28798776455027)"/><use xlink:href="#H" transform="matrix(1,0,0,1,595,1225) translate(193.54123263888889 100.28798776455027)"/><use xlink:href="#I" transform="matrix(1,0,0,1,595,1225) translate(221.27907986111111 100.28798776455027)"/><use xlink:href="#J" transform="matrix(1,0,0,1,595,1225) translate(124.19661458333334 130.71374834656086)"/><use xlink:href="#K" transform="matrix(1,0,0,1,595,1225) translate(151.93446180555557 130.71374834656086)"/><path d="M1078.04 1521.53l2 .15 1.97.48 1.9.78 1.73 1.06 1.55 1.32 1.32 1.55 1.06 1.74.78 1.9.48 1.97.15 2v47.7h-1.94v-47.63l-.14-1.76-.42-1.7-.66-1.58-.9-1.48-1.13-1.3-1.32-1.14-1.48-.9-1.6-.66-1.68-.4-1.76-.14H868.58v-1.95zm-336.93-9.3l.42 1.68.66 1.6.9 1.48 1.13 1.3 1.32 1.14 1.48.9 1.6.66 1.68.4 1.76.14h88.55v1.95h-88.64l-2-.15-1.97-.48-1.9-.78-1.73-1.06-1.55-1.32-1.32-1.55-1.06-1.74-.78-1.9-.48-1.97-.15-2v-65.2h1.95v65.13z" stroke="#008a0e" stroke-width=".05" fill="#008a0e"/><path d="M740 1444.34l.98-.06v1.08H739v-1.08z" fill="#008a0e"/><path stroke="#008a0e" stroke-width=".05" fill="#008a0e"/><path d="M1090 1597.43l-4.63-14.27h9.27z" fill="#008a0e"/><path d="M1090 1600.58l-5.98-18.4h11.96zm-3.3-16.44l3.3 10.13 3.3-10.13z" stroke="#008a0e" stroke-width=".05" fill="#008a0e"/><use xlink:href="#B" transform="matrix(1,0,0,1,840.5853882866639,1511.7) translate(0.005000000000000782 14.4)"/><path d="M1083.6 1604.8a10.67 10.67 0 0 1 12.8 0l137.2 102.9a6 6 0 0 1 0 9.6l-137.2 102.9a10.67 10.67 0 0 1-12.8 0l-137.2-102.9a6 6 0 0 1 0-9.6z" stroke="#6db1ff" stroke-width="4" fill="#fff"/><use xlink:href="#y" transform="matrix(1,0,0,1,945,1605) translate(54.85199652777777 115.50086805555556)"/><use xlink:href="#f" transform="matrix(1,0,0,1,945,1605) translate(179.67230902777777 115.50086805555556)"/><use xlink:href="#L" transform="matrix(1,0,0,1,945,1605) translate(207.41015625 115.50086805555556)"/><path d="M740 1445.34v65.16a12 12 0 0 1-12 12H362a12 12 0 0 0-12 12v47.66" stroke="#e81313" stroke-width="2" fill="none"/><path d="M740 1444.34l.98-.06v1.08H739v-1.08z" stroke="#e81313" stroke-width=".05" fill="#e81313"/><path d="M350 1597.43l-4.63-14.27h9.26z" stroke="#e81313" stroke-width="2" fill="#e81313"/><g><use xlink:href="#E" transform="matrix(1,0,0,1,580.2802990793252,1496.9) translate(0.005000000000000782 14.4)"/></g><path d="M343.6 1604.8a10.67 10.67 0 0 1 12.8 0l137.2 102.9a6 6 0 0 1 0 9.6l-137.2 102.9a10.67 10.67 0 0 1-12.8 0l-137.2-102.9a6 6 0 0 1 0-9.6z" stroke="#6db1ff" stroke-width="4" fill="#fff"/><g><use xlink:href="#y" transform="matrix(1,0,0,1,205,1605) translate(54.85199652777777 115.50086805555556)"/><use xlink:href="#f" transform="matrix(1,0,0,1,205,1605) translate(179.67230902777777 115.50086805555556)"/><use xlink:href="#M" transform="matrix(1,0,0,1,205,1605) translate(207.41015625 115.50086805555556)"/></g><path d="M130.97 2200.46l.14 1.76.42 1.7.66 1.58.9 1.48 1.13 1.3 1.32 1.14 1.48.9 1.6.66 1.68.4 1.76.14H439.5v1.95H141.96l-2-.15-1.97-.48-1.9-.78-1.73-1.06-1.55-1.32-1.32-1.55-1.06-1.74-.78-1.9-.48-1.97-.16-2v-566.5h1.95zm0-588.04h-1.94v-412.08h1.94z" stroke="#008a0e" stroke-width=".05" fill="#008a0e"/><path d="M130 1199.34l.97-.06v1.08h-1.94v-1.08z" fill="#008a0e"/><path stroke="#008a0e" stroke-width=".05" fill="#008a0e"/><path d="M454.76 2212.5l-14.26 4.64v-9.28z" fill="#008a0e"/><path d="M457.92 2212.5l-18.4 5.98v-11.96zm-16.45 3.3l10.14-3.3-10.13-3.3z" stroke="#008a0e" stroke-width=".05" fill="#008a0e"/><g><use xlink:href="#o" transform="matrix(1,0,0,1,115.325,1612.422609427754) translate(0.005000000000000782 14.4)"/></g><path d="M460 2108a8 8 0 0 1 8-8h524a8 8 0 0 1 8 8v209a8 8 0 0 1-8 8H468a8 8 0 0 1-8-8z" stroke="#3a414a" stroke-width="4" fill-opacity="0"/><g><use xlink:href="#N" transform="matrix(1,0,0,1,465,2105) translate(59.63324652777794 119.3474392361111)"/><use xlink:href="#O" transform="matrix(1,0,0,1,465,2105) translate(265 119.3474392361111)"/><use xlink:href="#P" transform="matrix(1,0,0,1,465,2105) translate(408.75672743055543 119.3474392361111)"/></g><path d="M718.04 1960.2l2 .15 1.97.48 1.9.78 1.73 1.07 1.55 1.32 1.32 1.54 1.06 1.74.78 1.88.48 1.98.15 2v106.36h-1.95v-106.3l-.13-1.76-.42-1.68-.66-1.6-.9-1.47-1.13-1.33-1.32-1.12-1.48-.9-1.6-.66-1.68-.42-1.76-.14h-163.3v-1.95zm-366.93-9.3l.42 1.67.66 1.6.9 1.48 1.13 1.3 1.32 1.14 1.48.9 1.6.65 1.68.4 1.76.14h163.3v1.94H361.95l-2-.15-1.97-.5-1.9-.77-1.73-1.06-1.55-1.32-1.32-1.55-1.06-1.74-.78-1.88-.48-1.98-.16-2v-123.86h1.96v123.8z" stroke="#008a0e" stroke-width=".05" fill="#008a0e"/><path d="M350 1824.34l.98-.06v1.08h-1.96v-1.08z" fill="#008a0e"/><path stroke="#008a0e" stroke-width=".05" fill="#008a0e"/><path d="M730 2094.76l-4.63-14.26h9.26z" fill="#008a0e"/><path d="M730 2097.92l-5.98-18.4h11.96zm-3.3-16.45l3.3 10.14 3.3-10.13z" stroke="#008a0e" stroke-width=".05" fill="#008a0e"/><g><use xlink:href="#o" transform="matrix(1,0,0,1,525.325,1950.368755447792) translate(0.005000000000000782 14.4)"/></g><path d="M895.33 1962.14h-153.3l-1.75.14-1.7.4-1.58.67-1.48.9-1.3 1.13-1.14 1.3-.9 1.48-.66 1.6-.4 1.68-.14 1.77v106.3H729v-106.37l.16-2 .48-1.97.78-1.88 1.06-1.74 1.32-1.55 1.55-1.33 1.74-1.07 1.9-.77 1.97-.48 2-.16h153.36zm195.64-12.93l-.15 2-.48 1.98-.78 1.88-1.06 1.74-1.32 1.55-1.55 1.32-1.74 1.06-1.9.78-1.97.5-2 .14H924.68v-1.95h153.3l1.75-.14 1.7-.4 1.58-.67 1.48-.9 1.3-1.14 1.14-1.3.9-1.5.66-1.6.4-1.67.14-1.77v-123.8h1.95z" stroke="#008a0e" stroke-width=".05" fill="#008a0e"/><path d="M1090 1824.34l.97-.06v1.08h-1.94v-1.08z" fill="#008a0e"/><path stroke="#008a0e" stroke-width=".05" fill="#008a0e"/><path d="M730 2094.76l-4.63-14.26h9.26z" fill="#008a0e"/><path d="M730 2097.92l-5.98-18.4h11.96zm-3.3-16.45l3.3 10.14 3.3-10.13z" stroke="#008a0e" stroke-width=".05" fill="#008a0e"/><g><use xlink:href="#o" transform="matrix(1,0,0,1,895.325,1950.368755447792) translate(0.005000000000000782 14.4)"/></g><path d="M600.98 2807.96l.13 1.76.42 1.7.66 1.58.9 1.48 1.13 1.3 1.32 1.14 1.48.9 1.6.66 1.68.4 1.76.14h9.46v1.95h-9.54l-2-.15-1.97-.48-1.9-.78-1.73-1.06-1.55-1.32-1.32-1.55-1.06-1.74-.78-1.9-.48-1.97-.15-2v-186.48h1.95zm130-471.92l-.16 2-.48 1.97-.78 1.9-1.06 1.73-1.32 1.55-1.55 1.32-1.74 1.06-1.9.78-1.97.48-2 .15h-106l-1.75.14-1.7.42-1.58.66-1.48.9-1.3 1.13-1.14 1.32-.9 1.48-.66 1.6-.4 1.68-.14 1.76v239.9H599v-239.98l.16-2 .48-1.97.78-1.9 1.06-1.73 1.32-1.55 1.55-1.32 1.74-1.06 1.9-.78 1.97-.48 2-.15h106l1.75-.14 1.7-.42 1.58-.66 1.48-.9 1.3-1.13 1.14-1.32.9-1.48.66-1.6.4-1.68.14-1.76V2328H731z" stroke="#008a0e" stroke-width=".05" fill="#008a0e"/><path d="M730.98 2328.03H729V2327H731z" fill="#008a0e"/><path stroke="#008a0e" stroke-width=".05" fill="#008a0e"/><path d="M636.76 2820l-14.26 4.64v-9.28z" fill="#008a0e"/><path d="M639.92 2820l-18.4 5.98v-11.96zm-16.45 3.3l10.14-3.3-10.13-3.3z" stroke="#008a0e" stroke-width=".05" fill="#008a0e"/><g><use xlink:href="#o" transform="matrix(1,0,0,1,585.325,2599.9473484177397) translate(0.005000000000000782 14.4)"/></g><defs><path fill="#3a414a" d="M185-189c-5-48-123-54-124 2 14 75 158 14 163 119 3 78-121 87-175 55-17-10-28-26-33-46l33-7c5 56 141 63 141-1 0-78-155-14-162-118-5-82 145-84 179-34 5 7 8 16 11 25" id="Q"/><path fill="#3a414a" d="M59-47c-2 24 18 29 38 22v24C64 9 27 4 27-40v-127H5v-23h24l9-43h21v43h35v23H59v120" id="R"/><path fill="#3a414a" d="M141-36C126-15 110 5 73 4 37 3 15-17 15-53c-1-64 63-63 125-63 3-35-9-54-41-54-24 1-41 7-42 31l-33-3c5-37 33-52 76-52 45 0 72 20 72 64v82c-1 20 7 32 28 27v20c-31 9-61-2-59-35zM48-53c0 20 12 33 32 33 41-3 63-29 60-74-43 2-92-5-92 41" id="S"/><path fill="#3a414a" d="M114-163C36-179 61-72 57 0H25l-1-190h30c1 12-1 29 2 39 6-27 23-49 58-41v29" id="T"/><g id="a"><use transform="matrix(0.0685185185185185,0,0,0.0685185185185185,0,0)" xlink:href="#Q"/><use transform="matrix(0.0685185185185185,0,0,0.0685185185185185,16.444444444444443,0)" xlink:href="#R"/><use transform="matrix(0.0685185185185185,0,0,0.0685185185185185,23.29629629629629,0)" xlink:href="#S"/><use transform="matrix(0.0685185185185185,0,0,0.0685185185185185,36.99999999999999,0)" xlink:href="#T"/><use transform="matrix(0.0685185185185185,0,0,0.0685185185185185,45.1537037037037,0)" xlink:href="#R"/></g><path d="M977 0v-707c0-97-9-165-27-203s-47-57-88-57c-58 0-100 28-126 83s-40 148-40 278V0H535v-707c0-173-42-260-125-260-56 0-96 26-120 79s-36 160-36 319V0H92v-1098h127l27 148h10c45-112 112-168 201-168 109 0 180 61 213 182h6c51-121 124-182 219-182 85 0 147 30 186 92s58 165 58 309V0H977" id="U"/><path d="M1112-551c0 331-186 571-502 571-301 0-495-251-495-571 0-330 184-567 501-567 302 0 496 249 496 567zM614-131c207 0 310-140 310-420 0-277-104-416-312-416-206 0-309 139-309 416 0 280 104 420 311 420" id="V"/><path d="M887 0v-707c0-173-79-260-238-260-205 0-307 133-307 398V0H160v-1098h147l27 148h10c69-112 181-168 336-168 259 0 389 134 389 401V0H887" id="W"/><path d="M1020-150v138C933 9 849 20 768 20 527 20 406-95 406-324v-637H139v-94l267-49 77-287h105v293h438v137H588v637c0 130 64 195 192 195 62 0 142-7 240-21" id="X"/><path d="M887 0v-707c0-173-79-260-238-260-205 0-307 133-307 398V0H160v-1556h182c-2 202 6 416-8 606h10c69-112 181-168 336-168 259 0 389 134 389 401V0H887" id="Y"/><path d="M1243 324H-16V184h1259v140" id="Z"/><path d="M137-547c0-322 136-571 430-571 137 0 245 53 322 160h12c-24-215-7-376-12-598h182V0H924l-27-147h-8C814-36 706 20 567 20c-294 0-430-246-430-567zm463 416c241 0 288-157 289-416 0-151-23-259-69-323s-121-97-222-97c-181 0-272 141-272 422 0 276 91 414 274 414" id="aa"/><path d="M596-1118c288 2 430 92 430 366V0H895l-37-152h-8C752-34 680 17 483 20 272 23 135-98 135-307c0-221 170-337 510-348l203-7c15-197-55-305-244-305-98 0-207 27-328 82l-63-137c131-64 258-96 383-96zm-72 991c194 0 325-116 322-311v-99c-251 15-522-6-522 232 0 119 67 178 200 178" id="ab"/><path d="M631-1118c283 0 470 204 465 491v113H322c5 250 120 375 344 375 130 0 253-25 370-76v160C925-5 804 20 672 20c-329 0-539-224-539-561 0-331 182-577 498-577zM326-662h573c0-203-91-305-272-305-183 0-284 102-301 305" id="ac"/><g id="b"><use transform="matrix(0.011284722222222222,0,0,0.011284722222222222,0,0)" xlink:href="#U"/><use transform="matrix(0.011284722222222222,0,0,0.011284722222222222,13.86892361111111,0)" xlink:href="#V"/><use transform="matrix(0.011284722222222222,0,0,0.011284722222222222,27.73784722222222,0)" xlink:href="#W"/><use transform="matrix(0.011284722222222222,0,0,0.011284722222222222,41.60677083333333,0)" xlink:href="#X"/><use transform="matrix(0.011284722222222222,0,0,0.011284722222222222,55.47569444444444,0)" xlink:href="#Y"/><use transform="matrix(0.011284722222222222,0,0,0.011284722222222222,69.34461805555556,0)" xlink:href="#Z"/><use transform="matrix(0.011284722222222222,0,0,0.011284722222222222,83.21354166666667,0)" xlink:href="#aa"/><use transform="matrix(0.011284722222222222,0,0,0.011284722222222222,97.08246527777777,0)" xlink:href="#ab"/><use transform="matrix(0.011284722222222222,0,0,0.011284722222222222,110.95138888888891,0)" xlink:href="#X"/><use transform="matrix(0.011284722222222222,0,0,0.011284722222222222,124.82031250000001,0)" xlink:href="#ac"/></g><path d="M152-381l714-342-714-342v-160l923 451v102L152-221v-160" id="ad"/><use transform="matrix(0.011284722222222222,0,0,0.011284722222222222,0,0)" xlink:href="#ad" id="c"/><path d="M612 20c-153 0-268-65-347-194S147-489 147-733c0-501 155-752 465-752 155 0 271 64 350 193s119 316 119 559c0 502-156 753-469 753zm0-155c98 0 165-50 216-141 86-153 87-759 0-912-51-91-118-141-216-141-97 0-162 49-212 139-85 152-84 764 0 915 50 90 115 140 212 140" id="ae"/><use transform="matrix(0.011284722222222222,0,0,0.011284722222222222,0,0)" xlink:href="#ae" id="d"/><g id="e"><use transform="matrix(0.011284722222222222,0,0,0.011284722222222222,0,0)" xlink:href="#U"/><use transform="matrix(0.011284722222222222,0,0,0.011284722222222222,13.86892361111111,0)" xlink:href="#V"/><use transform="matrix(0.011284722222222222,0,0,0.011284722222222222,27.73784722222222,0)" xlink:href="#W"/><use transform="matrix(0.011284722222222222,0,0,0.011284722222222222,41.60677083333333,0)" xlink:href="#X"/><use transform="matrix(0.011284722222222222,0,0,0.011284722222222222,55.47569444444444,0)" xlink:href="#Y"/><use transform="matrix(0.011284722222222222,0,0,0.011284722222222222,69.34461805555556,0)" xlink:href="#Z"/><use transform="matrix(0.011284722222222222,0,0,0.011284722222222222,83.21354166666667,0)" xlink:href="#aa"/><use transform="matrix(0.011284722222222222,0,0,0.011284722222222222,97.08246527777777,0)" xlink:href="#ab"/><use transform="matrix(0.011284722222222222,0,0,0.011284722222222222,110.95138888888891,0)" xlink:href="#X"/><use transform="matrix(0.011284722222222222,0,0,0.011284722222222222,124.82031250000001,0)" xlink:href="#ac"/></g><path d="M1075-221L152-672v-102l923-451v160L360-723l715 342v160" id="af"/><use transform="matrix(0.011284722222222222,0,0,0.011284722222222222,0,0)" xlink:href="#af" id="f"/><path d="M758 0H582c3-449-8-824 8-1274-61 68-188 168-268 234l-97-123 383-299h150V0" id="ag"/><path d="M1010-1120c0 200-132 322-316 350v6c241 31 361 147 361 348 0 294-219 436-537 436-161 0-290-26-387-79v-170c123 64 250 96 383 96 236 0 354-96 354-289 0-172-127-258-381-258H354v-151h133c195 4 334-97 336-277 1-140-106-221-250-221-119 0-233 40-344 121l-92-125c125-100 270-150 436-150 252 0 437 128 437 363" id="ah"/><g id="g"><use transform="matrix(0.011284722222222222,0,0,0.011284722222222222,0,0)" xlink:href="#ag"/><use transform="matrix(0.011284722222222222,0,0,0.011284722222222222,13.86892361111111,0)" xlink:href="#ah"/></g><path fill="#3a414a" d="M100-194c62-1 85 37 85 99 1 63-27 99-86 99S16-35 15-95c0-66 28-99 85-99zM99-20c44 1 53-31 53-75 0-43-8-75-51-75s-53 32-53 75 10 74 51 75" id="ai"/><path fill="#3a414a" d="M115-194c55 1 70 41 70 98S169 2 115 4C84 4 66-9 55-30l1 105H24l-1-265h31l2 30c10-21 28-34 59-34zm-8 174c40 0 45-34 45-75s-6-73-45-74c-42 0-51 32-51 76 0 43 10 73 51 73" id="aj"/><g id="h"><use transform="matrix(0.0685185185185185,0,0,0.0685185185185185,0,0)" xlink:href="#Q"/><use transform="matrix(0.0685185185185185,0,0,0.0685185185185185,16.444444444444443,0)" xlink:href="#R"/><use transform="matrix(0.0685185185185185,0,0,0.0685185185185185,23.29629629629629,0)" xlink:href="#ai"/><use transform="matrix(0.0685185185185185,0,0,0.0685185185185185,36.99999999999999,0)" xlink:href="#aj"/></g><path d="M179-190L93 31C79 59 56 82 12 73V49c39 6 53-20 64-50L1-190h34L92-34l54-156h33" id="ak"/><path d="M100-194c63 0 86 42 84 106H49c0 40 14 67 53 68 26 1 43-12 49-29l28 8c-11 28-37 45-77 45C44 4 14-33 15-96c1-61 26-98 85-98zm52 81c6-60-76-77-97-28-3 7-6 17-6 28h103" id="al"/><path d="M141-36C126-15 110 5 73 4 37 3 15-17 15-53c-1-64 63-63 125-63 3-35-9-54-41-54-24 1-41 7-42 31l-33-3c5-37 33-52 76-52 45 0 72 20 72 64v82c-1 20 7 32 28 27v20c-31 9-61-2-59-35zM48-53c0 20 12 33 32 33 41-3 63-29 60-74-43 2-92-5-92 41" id="am"/><path d="M114-163C36-179 61-72 57 0H25l-1-190h30c1 12-1 29 2 39 6-27 23-49 58-41v29" id="an"/><path d="M-5 72V49h209v23H-5" id="ao"/><path d="M85-194c31 0 48 13 60 33l-1-100h32l1 261h-30c-2-10 0-23-3-31C134-8 116 4 85 4 32 4 16-35 15-94c0-66 23-100 70-100zm9 24c-40 0-46 34-46 75 0 40 6 74 45 74 42 0 51-32 51-76 0-42-9-74-50-73" id="ap"/><path d="M59-47c-2 24 18 29 38 22v24C64 9 27 4 27-40v-127H5v-23h24l9-43h21v43h35v23H59v120" id="aq"/><g id="i"><use transform="matrix(0.05944444444444442,0,0,0.05944444444444442,0,0)" xlink:href="#ak"/><use transform="matrix(0.05944444444444442,0,0,0.05944444444444442,10.699999999999996,0)" xlink:href="#al"/><use transform="matrix(0.05944444444444442,0,0,0.05944444444444442,22.58888888888888,0)" xlink:href="#am"/><use transform="matrix(0.05944444444444442,0,0,0.05944444444444442,34.47777777777777,0)" xlink:href="#an"/><use transform="matrix(0.05944444444444442,0,0,0.05944444444444442,41.551666666666655,0)" xlink:href="#ao"/><use transform="matrix(0.05944444444444442,0,0,0.05944444444444442,53.44055555555554,0)" xlink:href="#ap"/><use transform="matrix(0.05944444444444442,0,0,0.05944444444444442,65.32944444444442,0)" xlink:href="#am"/><use transform="matrix(0.05944444444444442,0,0,0.05944444444444442,77.2183333333333,0)" xlink:href="#aq"/><use transform="matrix(0.05944444444444442,0,0,0.05944444444444442,83.16277777777775,0)" xlink:href="#al"/></g><path d="M18-27v-27l151-64-151-65v-27l175 74v36" id="ar"/><path d="M18-150v-26h174v26H18zm0 90v-26h174v26H18" id="as"/><g id="j"><use transform="matrix(0.05944444444444442,0,0,0.05944444444444442,0,0)" xlink:href="#ar"/><use transform="matrix(0.05944444444444442,0,0,0.05944444444444442,12.483333333333327,0)" xlink:href="#as"/></g><path d="M27 0v-27h64v-190l-56 39v-29l58-41h29v221h61V0H27" id="at"/><path d="M99-251c64 0 84 50 84 122C183-37 130 33 47-8c-14-7-20-23-25-40l30-5c6 39 69 39 84 7 9-19 16-44 16-74-10 22-31 35-62 35-49 0-73-33-73-83 0-54 28-83 82-83zm-1 141c31-1 51-18 51-49 0-36-14-67-51-67-34 0-49 23-49 58 0 34 15 58 49 58" id="au"/><path d="M101-251c68 0 85 55 85 127S166 4 100 4C33 4 14-52 14-124c0-73 17-127 87-127zm-1 229c47 0 54-49 54-102s-4-102-53-102c-51 0-55 48-55 102 0 53 5 102 54 102" id="av"/><g id="k"><use transform="matrix(0.05944444444444442,0,0,0.05944444444444442,0,0)" xlink:href="#at"/><use transform="matrix(0.05944444444444442,0,0,0.05944444444444442,11.888888888888884,0)" xlink:href="#au"/><use transform="matrix(0.05944444444444442,0,0,0.05944444444444442,23.777777777777768,0)" xlink:href="#av"/><use transform="matrix(0.05944444444444442,0,0,0.05944444444444442,35.66666666666665,0)" xlink:href="#at"/></g><g id="l"><use transform="matrix(0.05944444444444442,0,0,0.05944444444444442,0,0)" xlink:href="#ak"/><use transform="matrix(0.05944444444444442,0,0,0.05944444444444442,10.699999999999996,0)" xlink:href="#al"/><use transform="matrix(0.05944444444444442,0,0,0.05944444444444442,22.58888888888888,0)" xlink:href="#am"/><use transform="matrix(0.05944444444444442,0,0,0.05944444444444442,34.47777777777777,0)" xlink:href="#an"/><use transform="matrix(0.05944444444444442,0,0,0.05944444444444442,41.551666666666655,0)" xlink:href="#ao"/><use transform="matrix(0.05944444444444442,0,0,0.05944444444444442,53.44055555555554,0)" xlink:href="#ap"/><use transform="matrix(0.05944444444444442,0,0,0.05944444444444442,65.32944444444442,0)" xlink:href="#am"/><use transform="matrix(0.05944444444444442,0,0,0.05944444444444442,77.2183333333333,0)" xlink:href="#aq"/><use transform="matrix(0.05944444444444442,0,0,0.05944444444444442,83.16277777777775,0)" xlink:href="#al"/></g><path d="M18-100v-36l175-74v27L42-118l151 64v27" id="aw"/><g id="m"><use transform="matrix(0.05944444444444442,0,0,0.05944444444444442,0,0)" xlink:href="#aw"/><use transform="matrix(0.05944444444444442,0,0,0.05944444444444442,12.483333333333327,0)" xlink:href="#as"/></g><path d="M101-251c82-7 93 87 43 132L82-64C71-53 59-42 53-27h129V0H18c2-99 128-94 128-182 0-28-16-43-45-43s-46 15-49 41l-32-3c6-41 34-60 81-64" id="ax"/><g id="n"><use transform="matrix(0.05944444444444442,0,0,0.05944444444444442,0,0)" xlink:href="#ax"/><use transform="matrix(0.05944444444444442,0,0,0.05944444444444442,11.888888888888884,0)" xlink:href="#av"/><use transform="matrix(0.05944444444444442,0,0,0.05944444444444442,23.777777777777768,0)" xlink:href="#au"/><use transform="matrix(0.05944444444444442,0,0,0.05944444444444442,35.66666666666665,0)" xlink:href="#au"/></g><path fill="#3a414a" d="M137-103V0h-34v-103L8-248h37l75 118 75-118h37" id="ay"/><path fill="#3a414a" d="M100-194c63 0 86 42 84 106H49c0 40 14 67 53 68 26 1 43-12 49-29l28 8c-11 28-37 45-77 45C44 4 14-33 15-96c1-61 26-98 85-98zm52 81c6-60-76-77-97-28-3 7-6 17-6 28h103" id="az"/><path fill="#3a414a" d="M135-143c-3-34-86-38-87 0 15 53 115 12 119 90S17 21 10-45l28-5c4 36 97 45 98 0-10-56-113-15-118-90-4-57 82-63 122-42 12 7 21 19 24 35" id="aA"/><g id="o"><use transform="matrix(0.05,0,0,0.05,0,0)" xlink:href="#ay"/><use transform="matrix(0.05,0,0,0.05,10.35,0)" xlink:href="#az"/><use transform="matrix(0.05,0,0,0.05,20.35,0)" xlink:href="#aA"/></g><path fill="#3a414a" d="M190 0L58-211 59 0H30v-248h39L202-35l-2-213h31V0h-41" id="aB"/><g id="p"><use transform="matrix(0.05,0,0,0.05,0,0)" xlink:href="#aB"/><use transform="matrix(0.05,0,0,0.05,12.950000000000001,0)" xlink:href="#ai"/></g><g id="q"><use transform="matrix(0.011284722222222222,0,0,0.011284722222222222,0,0)" xlink:href="#U"/><use transform="matrix(0.011284722222222222,0,0,0.011284722222222222,13.86892361111111,0)" xlink:href="#V"/><use transform="matrix(0.011284722222222222,0,0,0.011284722222222222,27.73784722222222,0)" xlink:href="#W"/><use transform="matrix(0.011284722222222222,0,0,0.011284722222222222,41.60677083333333,0)" xlink:href="#X"/><use transform="matrix(0.011284722222222222,0,0,0.011284722222222222,55.47569444444444,0)" xlink:href="#Y"/><use transform="matrix(0.011284722222222222,0,0,0.011284722222222222,69.34461805555556,0)" xlink:href="#Z"/><use transform="matrix(0.011284722222222222,0,0,0.011284722222222222,83.21354166666667,0)" xlink:href="#aa"/><use transform="matrix(0.011284722222222222,0,0,0.011284722222222222,97.08246527777777,0)" xlink:href="#ab"/><use transform="matrix(0.011284722222222222,0,0,0.011284722222222222,110.95138888888891,0)" xlink:href="#X"/><use transform="matrix(0.011284722222222222,0,0,0.011284722222222222,124.82031250000001,0)" xlink:href="#ac"/></g><path d="M539-1556h149V492H539v-2048" id="aC"/><path d="M1055-469c0 318-203 489-527 489-149 0-268-26-356-79v-172c96 64 216 96 360 96 224 0 336-105 336-314 0-196-115-294-344-294-59 0-136 9-231 26l-90-57 55-688h690v166H416l-39 419c71-13 141-20 209-20 270-4 469 161 469 428" id="aD"/><path d="M334 0l563-1296H143v-166h940v145L528 0H334" id="aE"/><path d="M614-1485c230 0 412 129 412 352 0 153-87 273-262 359 206 107 309 238 309 393 0 249-200 401-459 401-271 0-458-134-458-393 0-171 94-302 282-393-157-97-235-220-235-369 0-219 188-350 411-350zm-2 152c-137 0-233 71-231 207 0 60 16 110 49 152s95 84 186 126c155-69 232-161 232-278 1-138-96-207-236-207zm-2 1202c171 0 285-85 285-248 0-60-22-112-63-159-43-49-141-111-244-158-169 81-254 189-254 325 0 160 92 240 276 240" id="aF"/><path d="M594-1483c248 0 420 149 418 391 0 79-21 160-59 244-73 161-414 504-572 674v8h688V0H158v-156c172-193 489-508 607-698 43-69 62-147 62-231 0-146-91-244-235-244-107 0-213 46-318 137l-102-119c128-115 269-172 422-172" id="aG"/><g id="r"><use transform="matrix(0.011284722222222222,0,0,0.011284722222222222,0,0)" xlink:href="#ag"/><use transform="matrix(0.011284722222222222,0,0,0.011284722222222222,13.86892361111111,0)" xlink:href="#aC"/><use transform="matrix(0.011284722222222222,0,0,0.011284722222222222,27.73784722222222,0)" xlink:href="#aC"/><use transform="matrix(0.011284722222222222,0,0,0.011284722222222222,41.60677083333333,0)" xlink:href="#ah"/><use transform="matrix(0.011284722222222222,0,0,0.011284722222222222,55.47569444444444,0)" xlink:href="#aC"/><use transform="matrix(0.011284722222222222,0,0,0.011284722222222222,69.34461805555556,0)" xlink:href="#aC"/><use transform="matrix(0.011284722222222222,0,0,0.011284722222222222,83.21354166666667,0)" xlink:href="#aD"/><use transform="matrix(0.011284722222222222,0,0,0.011284722222222222,97.08246527777777,0)" xlink:href="#aC"/><use transform="matrix(0.011284722222222222,0,0,0.011284722222222222,110.95138888888891,0)" xlink:href="#aC"/><use transform="matrix(0.011284722222222222,0,0,0.011284722222222222,124.82031250000001,0)" xlink:href="#aE"/><use transform="matrix(0.011284722222222222,0,0,0.011284722222222222,138.68923611111111,0)" xlink:href="#aC"/><use transform="matrix(0.011284722222222222,0,0,0.011284722222222222,152.55815972222223,0)" xlink:href="#aC"/><use transform="matrix(0.011284722222222222,0,0,0.011284722222222222,166.42708333333334,0)" xlink:href="#aF"/><use transform="matrix(0.011284722222222222,0,0,0.011284722222222222,180.29600694444446,0)" xlink:href="#aC"/><use transform="matrix(0.011284722222222222,0,0,0.011284722222222222,194.16493055555554,0)" xlink:href="#aC"/><use transform="matrix(0.011284722222222222,0,0,0.011284722222222222,208.0338541666667,0)" xlink:href="#ag"/><use transform="matrix(0.011284722222222222,0,0,0.011284722222222222,221.90277777777783,0)" xlink:href="#aG"/></g><path d="M152-852v-149h923v149H152zm0 410v-150h923v150H152" id="aH"/><use transform="matrix(0.011284722222222222,0,0,0.011284722222222222,0,0)" xlink:href="#aH" id="s"/><path d="M1126-328H913V0H737v-328H61v-159l664-983h188v976h213v166zM737-494c1-292-4-481 13-788h-9c-24 68-55 128-90 180L240-494h497" id="aI"/><use transform="matrix(0.011284722222222222,0,0,0.011284722222222222,0,0)" xlink:href="#aI" id="t"/><g id="u"><use transform="matrix(0.011284722222222222,0,0,0.011284722222222222,0,0)" xlink:href="#aC"/><use transform="matrix(0.011284722222222222,0,0,0.011284722222222222,13.86892361111111,0)" xlink:href="#aC"/></g><path d="M1075-471c0 288-166 493-444 491-145 0-261-56-347-168S154-420 154-625c0-572 213-858 639-858 69 0 127 6 172 19v155c-47-16-103-24-166-24-149 0-262 47-337 141S347-949 340-745h12c63-113 166-170 307-170 262 0 416 178 416 444zM629-133c183-3 270-141 270-338 0-183-88-297-264-301-154-4-299 123-299 266 0 185 113 376 293 373" id="aJ"/><g id="v"><use transform="matrix(0.011284722222222222,0,0,0.011284722222222222,0,0)" xlink:href="#aJ"/><use transform="matrix(0.011284722222222222,0,0,0.011284722222222222,13.86892361111111,0)" xlink:href="#aC"/><use transform="matrix(0.011284722222222222,0,0,0.011284722222222222,27.73784722222222,0)" xlink:href="#aC"/></g><path d="M154-991c0-288 166-494 444-492 147 0 262 57 348 171s129 272 129 474c0 572-213 858-639 858-70 0-127-6-172-18v-156c45 17 100 25 166 25 149 0 261-47 336-141s116-243 123-447h-12c-64 113-167 170-308 170-262 0-415-176-415-444zm446-338c-185 4-270 138-270 338 0 183 88 296 264 301 153 4 299-124 299-266 0-185-111-377-293-373" id="aK"/><use transform="matrix(0.011284722222222222,0,0,0.011284722222222222,0,0)" xlink:href="#aK" id="w"/><g id="x"><use transform="matrix(0.011284722222222222,0,0,0.011284722222222222,0,0)" xlink:href="#ag"/><use transform="matrix(0.011284722222222222,0,0,0.011284722222222222,13.86892361111111,0)" xlink:href="#ag"/></g><path d="M82-1098h188l262 654c55 137 84 233 89 290h6c15-75 45-172 90-292l239-652h189L670 143c-45 116-99 201-156 261-87 92-259 104-414 71V330c92 17 226 18 286-29 67-53 115-195 153-291" id="aL"/><g id="y"><use transform="matrix(0.011284722222222222,0,0,0.011284722222222222,0,0)" xlink:href="#aa"/><use transform="matrix(0.011284722222222222,0,0,0.011284722222222222,13.86892361111111,0)" xlink:href="#ab"/><use transform="matrix(0.011284722222222222,0,0,0.011284722222222222,27.73784722222222,0)" xlink:href="#aL"/><use transform="matrix(0.011284722222222222,0,0,0.011284722222222222,41.60677083333333,0)" xlink:href="#Z"/><use transform="matrix(0.011284722222222222,0,0,0.011284722222222222,55.47569444444444,0)" xlink:href="#aa"/><use transform="matrix(0.011284722222222222,0,0,0.011284722222222222,69.34461805555556,0)" xlink:href="#ab"/><use transform="matrix(0.011284722222222222,0,0,0.011284722222222222,83.21354166666667,0)" xlink:href="#X"/><use transform="matrix(0.011284722222222222,0,0,0.011284722222222222,97.08246527777777,0)" xlink:href="#ac"/></g><g id="z"><use transform="matrix(0.011284722222222222,0,0,0.011284722222222222,0,0)" xlink:href="#aa"/><use transform="matrix(0.011284722222222222,0,0,0.011284722222222222,13.86892361111111,0)" xlink:href="#ab"/><use transform="matrix(0.011284722222222222,0,0,0.011284722222222222,27.73784722222222,0)" xlink:href="#aL"/><use transform="matrix(0.011284722222222222,0,0,0.011284722222222222,41.60677083333333,0)" xlink:href="#Z"/><use transform="matrix(0.011284722222222222,0,0,0.011284722222222222,55.47569444444444,0)" xlink:href="#aa"/><use transform="matrix(0.011284722222222222,0,0,0.011284722222222222,69.34461805555556,0)" xlink:href="#ab"/><use transform="matrix(0.011284722222222222,0,0,0.011284722222222222,83.21354166666667,0)" xlink:href="#X"/><use transform="matrix(0.011284722222222222,0,0,0.011284722222222222,97.08246527777777,0)" xlink:href="#ac"/></g><g id="A"><use transform="matrix(0.011284722222222222,0,0,0.011284722222222222,0,0)" xlink:href="#ah"/><use transform="matrix(0.011284722222222222,0,0,0.011284722222222222,13.86892361111111,0)" xlink:href="#ag"/></g><path fill="#3a414a" d="M179-190L93 31C79 59 56 82 12 73V49c39 6 53-20 64-50L1-190h34L92-34l54-156h33" id="aM"/><g id="B"><use transform="matrix(0.05,0,0,0.05,0,0)" xlink:href="#aM"/><use transform="matrix(0.05,0,0,0.05,9,0)" xlink:href="#az"/><use transform="matrix(0.05,0,0,0.05,19,0)" xlink:href="#aA"/></g><g id="C"><use transform="matrix(0.011284722222222222,0,0,0.011284722222222222,0,0)" xlink:href="#aa"/><use transform="matrix(0.011284722222222222,0,0,0.011284722222222222,13.86892361111111,0)" xlink:href="#ab"/><use transform="matrix(0.011284722222222222,0,0,0.011284722222222222,27.73784722222222,0)" xlink:href="#aL"/><use transform="matrix(0.011284722222222222,0,0,0.011284722222222222,41.60677083333333,0)" xlink:href="#Z"/><use transform="matrix(0.011284722222222222,0,0,0.011284722222222222,55.47569444444444,0)" xlink:href="#aa"/><use transform="matrix(0.011284722222222222,0,0,0.011284722222222222,69.34461805555556,0)" xlink:href="#ab"/><use transform="matrix(0.011284722222222222,0,0,0.011284722222222222,83.21354166666667,0)" xlink:href="#X"/><use transform="matrix(0.011284722222222222,0,0,0.011284722222222222,97.08246527777777,0)" xlink:href="#ab"/></g><g id="D"><use transform="matrix(0.011284722222222222,0,0,0.011284722222222222,0,0)" xlink:href="#ah"/><use transform="matrix(0.011284722222222222,0,0,0.011284722222222222,13.86892361111111,0)" xlink:href="#ag"/></g><path fill="#3a414a" d="M117-194c89-4 53 116 60 194h-32v-121c0-31-8-49-39-48C34-167 62-67 57 0H25l-1-190h30c1 10-1 24 2 32 11-22 29-35 61-36" id="aN"/><g id="E"><use transform="matrix(0.05,0,0,0.05,0,0)" xlink:href="#aN"/><use transform="matrix(0.05,0,0,0.05,10,0)" xlink:href="#ai"/></g><use transform="matrix(0.011284722222222222,0,0,0.011284722222222222,0,0)" xlink:href="#aG" id="F"/><path d="M442-897c93-139 173-221 377-221 79 0 159 15 240 45l-49 166c-82-30-157-45-224-45-221 0-340 134-340 360V0H264v-1098h148l22 201h8" id="aO"/><g id="G"><use transform="matrix(0.011284722222222222,0,0,0.011284722222222222,0,0)" xlink:href="#aL"/><use transform="matrix(0.011284722222222222,0,0,0.011284722222222222,13.86892361111111,0)" xlink:href="#ac"/><use transform="matrix(0.011284722222222222,0,0,0.011284722222222222,27.73784722222222,0)" xlink:href="#ab"/><use transform="matrix(0.011284722222222222,0,0,0.011284722222222222,41.60677083333333,0)" xlink:href="#aO"/><use transform="matrix(0.011284722222222222,0,0,0.011284722222222222,55.47569444444444,0)" xlink:href="#Z"/><use transform="matrix(0.011284722222222222,0,0,0.011284722222222222,69.34461805555556,0)" xlink:href="#aa"/><use transform="matrix(0.011284722222222222,0,0,0.011284722222222222,83.21354166666667,0)" xlink:href="#ab"/><use transform="matrix(0.011284722222222222,0,0,0.011284722222222222,97.08246527777777,0)" xlink:href="#X"/><use transform="matrix(0.011284722222222222,0,0,0.011284722222222222,110.95138888888891,0)" xlink:href="#ac"/></g><path d="M586-1133c0 202-102 349-295 349C107-784 0-937 0-1133c0-204 102-346 295-346 182 0 291 151 291 346zM293-903c93 0 139-77 139-230 0-150-46-225-139-225-94 0-141 75-141 225 0 153 47 230 141 230zm764-559L328 0H170l729-1462h158zm172 1132c0 201-103 349-295 348-183 0-291-153-291-348 0-204 102-346 295-346 182 0 291 151 291 346zM936-100c93 0 139-77 139-230 0-150-46-225-139-225-94 0-141 75-141 225 0 153 47 230 141 230" id="aP"/><use transform="matrix(0.011284722222222222,0,0,0.011284722222222222,0,0)" xlink:href="#aP" id="H"/><use transform="matrix(0.011284722222222222,0,0,0.011284722222222222,0,0)" xlink:href="#aI" id="I"/><use transform="matrix(0.011284722222222222,0,0,0.011284722222222222,0,0)" xlink:href="#aH" id="J"/><use transform="matrix(0.011284722222222222,0,0,0.011284722222222222,0,0)" xlink:href="#ae" id="K"/><g id="L"><use transform="matrix(0.011284722222222222,0,0,0.011284722222222222,0,0)" xlink:href="#ah"/><use transform="matrix(0.011284722222222222,0,0,0.011284722222222222,13.86892361111111,0)" xlink:href="#ae"/></g><g id="M"><use transform="matrix(0.011284722222222222,0,0,0.011284722222222222,0,0)" xlink:href="#aG"/><use transform="matrix(0.011284722222222222,0,0,0.011284722222222222,13.86892361111111,0)" xlink:href="#aK"/></g><path d="M172-543c0-365 197-575 553-575 119 0 231 20 336 59l-62 158c-100-38-189-57-268-57-247 0-371 138-371 413 0 271 120 406 361 406 105 0 212-21 321-62v160C953 0 843 20 713 20c-347 1-541-210-541-563" id="aQ"/><path d="M532-1413l-268-21v-122h451v1413l352 20V0H188v-123l344-20v-1270" id="aR"/><path d="M578-131c239 0 309-137 309-397v-570h182V0H922l-27-147h-10C815-36 704 20 551 20c-261 0-391-134-391-401v-717h182v707c0 173 79 260 236 260" id="aS"/><g id="N"><use transform="matrix(0.016710069444444434,0,0,0.016710069444444434,0,0)" xlink:href="#aQ"/><use transform="matrix(0.016710069444444434,0,0,0.016710069444444434,20.536675347222207,0)" xlink:href="#ab"/><use transform="matrix(0.016710069444444434,0,0,0.016710069444444434,41.073350694444414,0)" xlink:href="#aR"/><use transform="matrix(0.016710069444444434,0,0,0.016710069444444434,61.61002604166662,0)" xlink:href="#aQ"/><use transform="matrix(0.016710069444444434,0,0,0.016710069444444434,82.14670138888883,0)" xlink:href="#aS"/><use transform="matrix(0.016710069444444434,0,0,0.016710069444444434,102.68337673611103,0)" xlink:href="#aR"/><use transform="matrix(0.016710069444444434,0,0,0.016710069444444434,123.22005208333323,0)" xlink:href="#ab"/><use transform="matrix(0.016710069444444434,0,0,0.016710069444444434,143.75672743055543,0)" xlink:href="#X"/><use transform="matrix(0.016710069444444434,0,0,0.016710069444444434,164.29340277777763,0)" xlink:href="#ac"/></g><path d="M743-1550c71 0 107 38 107 114 0 77-36 115-107 115s-106-38-106-115c0-76 35-114 106-114zM854 117c0 250-172 375-432 375-109 0-205-12-287-35V303c89 26 186 39 289 39 147 0 248-74 248-215V-954l-420-21v-123h602V117" id="aT"/><path d="M739-1436c0 71-43 115-106 115-71 0-107-38-107-115 0-76 36-114 107-114s106 38 106 114zM541-954l-269-21v-123h451v955l352 20V0H197v-123l344-20v-811" id="aU"/><g id="O"><use transform="matrix(0.016710069444444434,0,0,0.016710069444444434,0,0)" xlink:href="#aT"/><use transform="matrix(0.016710069444444434,0,0,0.016710069444444434,20.536675347222207,0)" xlink:href="#aS"/><use transform="matrix(0.016710069444444434,0,0,0.016710069444444434,41.073350694444414,0)" xlink:href="#aR"/><use transform="matrix(0.016710069444444434,0,0,0.016710069444444434,61.61002604166662,0)" xlink:href="#aU"/><use transform="matrix(0.016710069444444434,0,0,0.016710069444444434,82.14670138888883,0)" xlink:href="#ab"/><use transform="matrix(0.016710069444444434,0,0,0.016710069444444434,102.68337673611103,0)" xlink:href="#W"/></g><g id="P"><use transform="matrix(0.016710069444444434,0,0,0.016710069444444434,0,0)" xlink:href="#aa"/><use transform="matrix(0.016710069444444434,0,0,0.016710069444444434,20.536675347222207,0)" xlink:href="#ab"/><use transform="matrix(0.016710069444444434,0,0,0.016710069444444434,41.073350694444414,0)" xlink:href="#aL"/></g></defs></g></svg>